<svg width="637" height="896" viewBox="0 0 637 896" fill="none" xmlns="http://www.w3.org/2000/svg">
<g clip-path="url(#clip0_380_1626)">
<path d="M183.247 786.576C186.476 790.964 189.972 795.181 193.589 799.235L118.585 798.743C118.03 797.964 117.468 797.197 116.922 796.401C114.53 792.951 112.23 789.514 110.001 786.093L183.247 786.576ZM173.014 771.018C175.526 775.36 178.243 779.581 181.151 783.668L108.122 783.189C105.41 778.943 102.818 774.726 100.339 770.535L173.014 771.018ZM165.114 755.476C167.018 759.776 169.097 763.997 171.368 768.114L98.6346 767.635C96.1638 763.389 93.8013 759.172 91.543 754.993L165.114 755.476ZM159.176 739.956C160.56 744.226 162.131 748.439 163.868 752.576L89.9846 752.089C87.7263 747.835 85.5763 743.622 83.518 739.451L159.176 739.956ZM155.035 724.439C155.31 725.747 155.597 727.06 155.897 728.36C156.601 731.281 157.401 734.181 158.272 737.051L82.1013 736.551C80.0346 732.289 78.0638 728.076 76.1846 723.918L155.035 724.439ZM152.501 708.93C152.968 713.16 153.643 717.364 154.451 721.543L74.8804 721.018C72.9763 716.743 71.1638 712.53 69.4263 708.38L152.501 708.93ZM151.606 693.435C151.61 694.835 151.647 696.235 151.747 697.63C151.801 700.439 151.964 703.243 152.214 706.035L68.2221 705.48C66.4513 701.201 64.7638 696.989 63.1429 692.855L151.606 693.435ZM152.285 677.955C152.122 679.339 151.98 680.726 151.922 682.118C151.855 684.926 151.71 687.735 151.643 690.543L62.0096 689.955C60.3388 685.655 58.7429 681.447 57.1971 677.326L152.285 677.955ZM115.422 662.222C115.664 662.88 115.905 663.53 116.151 664.201L119.264 663.526C119.247 663.343 119.218 663.039 119.176 662.622C119.164 662.497 119.155 662.372 119.143 662.247L154.476 662.48C154.218 663.893 153.964 665.305 153.685 666.705L153.331 668.614L153.105 670.539L152.681 674.397C152.66 674.618 152.631 674.843 152.605 675.064L56.1096 674.426C54.9888 671.422 53.8888 668.464 52.8138 665.568C52.3429 664.293 51.8804 663.055 51.4138 661.801L115.422 662.222ZM109.626 646.697C111.139 650.701 112.71 654.901 114.347 659.322L50.3388 658.897C48.7263 654.576 47.1388 650.376 45.5638 646.272L109.626 646.697ZM103.66 631.168C105.21 635.13 106.83 639.326 108.526 643.797L44.4388 643.376C42.7429 639.03 41.0429 634.818 39.3179 630.747L103.66 631.168ZM97.1846 615.639C97.9471 617.355 98.7221 619.06 99.468 620.785C99.8305 621.618 100.18 622.46 100.543 623.293C101.189 624.905 101.847 626.568 102.522 628.272L38.0637 627.843C36.1554 623.464 34.2013 619.243 32.1679 615.21L97.1846 615.639ZM90.0096 600.105C92.0388 604.272 93.9888 608.493 95.8971 612.735L30.6596 612.305C28.3137 607.855 25.8554 603.635 23.2262 599.664L90.0096 600.105ZM81.7929 584.564C84.2221 588.639 86.4471 592.897 88.5763 597.201L21.2262 596.755C17.9887 592.176 14.4887 587.943 10.6387 584.093L81.7929 584.564ZM91.4763 553.651L87.4888 561.114L84.7263 566.197L14.6971 565.739C17.7721 561.989 20.9012 557.814 24.1637 553.205L91.4763 553.651ZM99.7846 538.218C98.5263 540.505 97.2805 542.797 96.0471 545.097L93.018 550.764L26.1887 550.326C28.8721 546.455 31.6554 542.293 34.5929 537.789L99.7846 538.218ZM108.43 522.785C107.21 524.897 106.005 527.018 104.81 529.139C103.651 531.201 102.51 533.268 101.372 535.335L36.4596 534.91C39.0096 530.968 41.6679 526.801 44.4804 522.364L108.43 522.785ZM155.876 492.122C155.297 496.305 155.239 500.539 155.272 504.718L56.0179 504.059C58.5554 500.03 61.1971 495.847 63.9429 491.518L155.876 492.122ZM158.514 476.651C158.326 477.501 158.114 478.347 157.935 479.201L156.739 485.622L156.26 489.234L65.7679 488.634C68.3346 484.589 71.0054 480.414 73.7763 476.093L158.514 476.651ZM162.756 461.193C161.372 465.326 160.193 469.526 159.172 473.764L75.6304 473.214C78.243 469.155 80.9555 464.976 83.768 460.672L162.756 461.193ZM169.031 445.747C167.718 448.518 166.46 451.318 165.318 454.164C164.764 455.53 164.276 456.922 163.776 458.305L85.6471 457.793C88.3096 453.726 91.0721 449.547 93.9263 445.251L169.031 445.747ZM177.472 430.318C177.356 430.501 177.226 430.676 177.114 430.859C174.689 434.751 172.464 438.764 170.41 442.864L95.8513 442.372C98.5721 438.293 101.372 434.122 104.28 429.83L177.472 430.318ZM188.701 414.901C185.356 418.897 182.251 423.089 179.36 427.434L106.243 426.951C109.018 422.864 111.872 418.697 114.83 414.414L188.701 414.901ZM119.497 407.672C121.547 404.722 123.705 401.839 125.922 398.997L203.56 399.509C199.218 403.447 195.089 407.622 191.214 412.022L116.826 411.534C117.714 410.247 118.589 408.976 119.497 407.672ZM201.689 807.922C203.914 810.264 206.206 812.564 208.551 814.822L130.876 814.31C127.376 810.297 123.976 806.085 120.693 801.647L196.231 802.147C198.035 804.106 199.86 806.035 201.689 807.922ZM493.839 801.218C494.427 799.876 495.16 798.597 496.006 797.385L499.252 798.293C500.789 798.61 502.372 798.789 503.931 799.031C504.722 799.076 505.527 799.064 506.327 799.076C507.127 799.047 507.922 799.172 508.727 799.01C510.322 798.776 511.939 798.651 513.477 798.085C515.064 797.706 516.51 796.939 517.977 796.235C519.339 795.364 520.747 794.526 521.914 793.406C523.468 792.043 524.822 790.493 526.01 788.835L569.097 789.118C570.797 792.647 572.952 795.981 575.552 798.989C576.264 799.789 576.964 800.593 577.781 801.31L578.281 801.772L493.839 801.218ZM526.168 847.897C526.081 847.36 526.002 846.822 525.947 846.285C525.689 843.86 525.777 841.41 526.127 839.006C526.31 837.776 526.597 836.514 526.956 835.306L578.052 835.643C578.047 835.651 578.043 835.66 578.039 835.668C577.731 836.46 577.485 837.218 577.26 837.985C576.802 839.51 576.468 841.01 576.135 842.522C575.731 844.422 575.402 846.322 575.089 848.218L526.168 847.897ZM533.343 863.431L533.035 863.018C532.272 862.035 531.506 861.056 530.902 859.976C529.089 857.122 527.689 854.022 526.81 850.793L574.635 851.106C574.61 851.256 574.585 851.406 574.564 851.551L573.389 860.489C573.227 861.576 572.977 862.639 572.672 863.689L533.343 863.431ZM543.914 878.989C542.856 876.622 541.547 874.481 540.16 872.422C539.418 871.306 538.652 870.218 537.847 869.168C537.139 868.197 536.389 867.264 535.635 866.339L571.664 866.576C571.406 867.185 571.122 867.781 570.814 868.368C568.46 872.776 564.693 876.364 560.339 879.097L543.914 878.989ZM545.427 883.693C545.327 883.06 545.181 882.468 545.01 881.889L554.968 881.956C551.943 883.318 548.752 884.381 545.552 885.135C545.543 884.635 545.502 884.147 545.427 883.693ZM605.327 835.822C602.952 836.097 600.556 836.143 598.164 835.935C597.677 835.893 597.189 835.826 596.702 835.768L605.327 835.822ZM583.385 832.785C582.727 832.647 582.06 832.514 581.368 832.41L580.297 832.764L528.043 832.422C528.081 832.343 528.11 832.256 528.147 832.176L525.61 829.664C522.918 831.193 519.956 832.085 516.922 832.347L512.872 832.322C512.193 832.251 511.518 832.151 510.843 832.018C508.314 831.518 505.831 830.643 503.447 829.522C501.227 828.497 499.314 826.818 497.685 824.839C496.389 823.247 495.293 821.476 494.414 819.601L630.102 820.501C629.343 821.997 628.443 823.426 627.377 824.722C624.385 828.343 620.36 831.126 615.885 833.001L583.385 832.785ZM605.747 789.364L616.073 789.431C620.177 790.414 623.873 792.697 626.648 795.901C628.231 797.726 629.539 799.86 630.527 802.118L590.418 801.856C590.481 801.735 590.539 801.614 590.602 801.493C591.223 800.343 591.931 799.214 592.727 798.156C594.318 796.039 596.21 794.151 598.343 792.647C600.468 791.126 602.856 790.018 605.385 789.435C605.502 789.406 605.627 789.389 605.747 789.364ZM589.273 804.743L631.585 805.022C632.089 806.743 632.418 808.501 632.502 810.235C632.577 812.714 632.152 815.222 631.331 817.614L493.26 816.701C492.627 814.76 492.227 812.739 492.118 810.714C491.964 808.468 492.231 806.247 492.827 804.106L582.06 804.693C583.306 805.506 584.664 806.222 586.46 806.697L589.273 804.743ZM530.947 777.589C530.989 777.364 531.047 777.151 531.081 776.926C531.239 775.751 531.289 774.564 531.293 773.381L564.139 773.601C564.922 777.897 566.102 782.139 567.793 786.218L527.856 785.956C527.86 785.951 527.86 785.947 527.864 785.943C529.11 783.61 530.135 781.21 530.743 778.556C530.827 778.197 530.902 777.864 530.947 777.589ZM570.11 711.685C569.71 713.047 569.306 714.401 568.935 715.768C568.172 718.581 567.497 721.414 566.868 724.26L446.572 723.468C446.014 719.647 445.139 715.864 443.972 712.176C443.831 711.73 443.656 711.293 443.502 710.851L570.11 711.685ZM575.431 696.235C573.793 700.372 572.306 704.556 570.981 708.801L442.443 707.951C440.677 703.505 438.397 699.243 435.614 695.314L575.431 696.235ZM582.402 680.793C580.297 684.901 578.356 689.093 576.585 693.347L433.393 692.401C431.389 689.943 429.181 687.626 426.718 685.551C423.91 683.218 420.756 681.201 417.339 679.705L582.402 680.793ZM591.364 665.364C591.285 665.485 591.21 665.605 591.131 665.722C590.018 667.426 588.864 669.114 587.877 670.897C586.493 673.201 585.193 675.547 583.927 677.91L385.064 676.597C378.968 676.018 372.952 674.901 367.139 673.147C360.222 671.051 353.656 667.91 347.818 663.755L591.364 665.364ZM530.797 646.58C532.189 643.755 533.11 640.697 533.452 637.564L614.039 638.043C611.018 640.947 608.089 643.943 605.318 647.076L530.797 646.58ZM483.66 649.164C484.689 650.789 485.872 652.31 487.231 653.676C492.202 658.747 499.252 661.714 506.352 661.73C513.452 661.805 520.535 658.918 525.56 653.914C526.931 652.572 528.131 651.072 529.177 649.468L602.864 649.951C602.589 650.289 602.289 650.61 602.014 650.951C599.323 654.026 596.977 657.368 594.539 660.643C594.093 661.239 593.685 661.86 593.272 662.485L344.051 660.839C343.339 660.247 342.631 659.647 341.947 659.022C338.426 655.78 335.297 652.135 332.664 648.168L483.66 649.164ZM378.593 632.985C382.585 634.422 386.614 635.072 390.581 635.618C400.935 636.855 411.16 636.88 421.327 636.91L479.535 637.26C479.843 640.376 480.727 643.43 482.072 646.26L330.864 645.264C328.989 642.039 327.426 638.63 326.251 635.08C325.981 634.272 325.751 633.451 325.518 632.635L378.593 632.985ZM337.556 598.843C339.247 598.251 341.006 597.847 342.801 597.651C345.06 597.48 347.251 597.61 349.426 598.101C350.318 598.318 351.193 598.61 352.06 598.943L337.556 598.843ZM357.439 601.868C358.668 602.772 359.814 603.785 360.835 604.918C362.347 606.589 363.651 608.451 364.593 610.464C365.193 611.776 365.626 613.139 365.91 614.518L323.993 614.243C323.997 614.218 324.001 614.193 324.006 614.172C324.472 611.985 325.343 609.905 326.451 607.976C327.872 605.51 329.843 603.38 332.143 601.701L357.439 601.868ZM323.526 620.968C323.451 619.63 323.481 618.368 323.589 617.135L366.268 617.414C366.31 618.36 366.331 619.697 366.552 620.876C366.852 622.426 367.397 623.968 368.214 625.368C369.368 627.33 370.977 628.855 372.702 630.055L324.781 629.735C324.126 626.839 323.681 623.901 323.526 620.968ZM447.06 727.747C447.027 727.285 446.956 726.822 446.91 726.364L566.235 727.147C565.385 731.297 564.672 735.476 564.127 739.681C564.122 739.697 564.122 739.714 564.118 739.731L447.122 738.956C447.352 735.247 447.36 731.501 447.06 727.747ZM380.693 880.806C358.497 888.302 333.31 892.239 306.814 892.064C300.647 892.026 270.793 891.201 234.397 879.839L380.693 880.806ZM413.918 865.535C406.11 870.281 397.606 874.435 388.527 877.964L225.514 876.889C215.747 873.46 205.635 869.251 195.468 864.093L413.918 865.535ZM450.36 834.801C446.456 839.001 442.235 843.135 437.677 847.31L350.368 846.735C361.164 843.914 371.597 839.71 381.41 834.347L450.36 834.801ZM462.835 819.393C459.835 823.731 456.552 827.876 452.968 831.926L386.397 831.485C391.168 828.626 395.777 825.497 400.185 822.11C401.456 821.114 402.668 820.047 403.902 819.006L462.835 819.393ZM471.827 803.968C469.71 808.381 467.343 812.531 464.76 816.514L407.206 816.135C411.518 812.222 415.564 808.031 419.364 803.622L471.827 803.968ZM477.902 788.518C476.489 792.947 474.893 797.114 473.127 801.081L421.822 800.743C421.964 800.568 422.118 800.401 422.26 800.226C425.352 796.401 428.214 792.389 430.827 788.21L477.902 788.518ZM444.16 757.322L486.689 757.601C484.356 761.197 483.547 764.918 482.493 770.168L440.085 769.885C440.539 768.718 440.985 767.547 441.447 766.381C442.302 763.922 443.072 761.431 443.756 758.914C443.902 758.385 444.022 757.847 444.16 757.322ZM438.918 772.772L481.91 773.056C481.789 773.643 481.668 774.231 481.535 774.856C480.722 778.626 479.789 782.189 478.781 785.631L432.568 785.326C434.772 781.568 436.785 777.685 438.552 773.681C438.681 773.381 438.793 773.076 438.918 772.772ZM274.297 849.126C274.51 849.168 274.722 849.218 274.935 849.264L282.606 850.451L284.526 850.743L286.451 850.926L290.31 851.281C292.881 851.506 295.447 851.814 298.022 851.839L305.747 852.097C308.322 852.189 310.91 851.972 313.489 851.927L321.231 851.656C323.801 851.41 326.368 851.072 328.939 850.776L332.789 850.326C334.076 850.176 335.36 850.047 336.626 849.747L337.614 849.543L434.489 850.185C433.831 850.772 433.193 851.356 432.522 851.947C428.177 855.772 423.46 859.352 418.431 862.672L189.872 861.164C182.918 857.397 175.976 853.168 169.131 848.435L274.297 849.126ZM145.997 829.897C141.714 825.931 137.522 821.71 133.455 817.218L211.664 817.739C215.839 821.556 220.222 825.181 224.872 828.472C225.814 829.143 226.768 829.797 227.726 830.439L145.997 829.897ZM232.331 833.364C238.71 837.214 245.447 840.485 252.426 843.06L256.089 844.414C257.314 844.851 258.576 845.168 259.818 845.547C260.51 845.739 261.197 845.943 261.885 846.151L165.01 845.514C159.651 841.614 154.372 837.389 149.218 832.814L232.331 833.364ZM522.022 753.393C521.989 753.364 521.956 753.331 521.918 753.301C521.327 752.81 520.702 752.343 520.056 751.906C520.039 751.893 520.022 751.876 520.006 751.864C519.964 751.835 519.918 751.814 519.877 751.785C519.485 751.526 519.097 751.26 518.689 751.022C518.485 750.897 518.268 750.801 518.056 750.685C517.96 750.631 517.864 750.581 517.768 750.535C507.897 745.31 494.997 748.201 489.26 754.326C489.135 754.46 489.043 754.589 488.922 754.718L444.864 754.431C445.681 750.839 446.318 747.201 446.731 743.526C446.793 742.968 446.831 742.406 446.885 741.851L563.797 742.622C563.46 745.685 563.189 748.764 562.906 751.843L562.831 755.21L523.722 754.951C523.656 754.885 523.585 754.826 523.518 754.756C523.039 754.285 522.539 753.831 522.022 753.393ZM530.197 765.922C530.027 765.347 529.835 764.785 529.627 764.222C529.597 764.143 529.564 764.068 529.535 763.985C529.322 763.439 529.102 762.893 528.856 762.364C528.852 762.356 528.843 762.343 528.839 762.335C528.402 761.397 527.906 760.489 527.36 759.61C527.218 759.381 527.085 759.143 526.931 758.914C526.731 758.61 526.514 758.318 526.302 758.022C526.264 757.968 526.222 757.914 526.185 757.86L562.764 758.101C562.689 760.118 562.918 762.151 562.981 764.172C563.131 766.347 563.36 768.526 563.672 770.701L531.139 770.489C531.022 769.443 530.864 768.397 530.61 767.376C530.502 766.918 530.356 766.476 530.227 766.022C530.214 765.993 530.206 765.956 530.197 765.922ZM118.385 646.755L158.081 647.018L156.881 651.551C156.085 654.193 155.522 656.885 155.01 659.589L118.889 659.351C118.535 654.847 118.389 650.643 118.385 646.755ZM158.71 531.314C159.114 532.793 159.572 534.26 160.068 535.722L120.518 535.46C120.464 535.072 120.405 534.68 120.36 534.289C119.905 530.48 119.726 526.689 119.739 522.86L156.918 523.105C157.397 525.859 157.981 528.597 158.71 531.314ZM119.193 631.276L164.397 631.572C163.381 633.176 162.48 634.839 161.701 636.539C160.543 638.972 159.618 641.53 158.864 644.06L158.847 644.126L118.405 643.864C118.493 639.135 118.793 634.93 119.193 631.276ZM102.564 619.53C99.8138 612.251 96.9805 604.997 93.8513 597.83C90.918 591.214 87.7805 584.651 84.0096 578.318C85.4471 576.118 86.6805 573.976 87.9679 571.785L92.4888 563.868L101.389 548.026L110.255 532.222C111.301 530.397 112.355 528.576 113.414 526.764C113.53 529.543 113.73 532.322 114.076 535.064C114.943 541.78 116.497 548.489 119.239 554.843C120.601 558.014 122.226 561.101 124.23 563.968C126.247 566.83 128.585 569.476 131.205 571.822C134.739 574.976 138.826 577.41 143.151 579.201C141.405 580.193 139.714 581.28 138.11 582.493C134.647 585.097 131.685 588.28 129.135 591.697C123.976 598.56 120.947 606.585 118.897 614.614C118.543 616.043 118.243 617.485 117.964 618.926C117.701 620.105 117.447 621.305 117.222 622.53C115.98 629.239 114.789 639.439 115.28 652.614C110.818 640.664 106.86 630.393 103.28 621.497C103.039 620.843 102.805 620.18 102.564 619.53ZM124.36 550.972C122.789 546.939 121.697 542.693 120.955 538.36L161.114 538.622C161.797 540.389 162.547 542.135 163.418 543.843C164.76 546.426 166.351 548.939 168.214 551.26L124.36 550.972ZM208.939 628.972C207.647 626.239 205.868 623.718 203.56 621.61C201.368 619.618 198.66 618.047 195.685 617.26C194.943 617.068 194.181 616.96 193.426 616.818C192.672 616.764 191.889 616.697 191.151 616.68C189.768 616.747 188.389 616.701 186.997 616.922C181.464 617.501 175.885 619.705 171.547 623.347C169.601 624.922 167.893 626.743 166.414 628.689L119.547 628.38C119.805 626.435 120.093 624.68 120.38 623.118C120.539 622.276 120.718 621.472 120.889 620.655C121.28 619.026 121.701 617.405 122.172 615.805L249.281 616.643C250.876 620.676 251.897 624.943 252.376 629.26L208.939 628.972ZM241.531 663.051C236.497 668.418 229.972 672.11 222.451 672.585C216.26 673.318 209.939 672.289 204.785 668.876C203.447 668.118 202.276 667.089 201.06 666.139L199.376 664.514C198.806 663.98 198.326 663.351 197.797 662.776C197.793 662.772 197.789 662.768 197.789 662.764L241.531 663.051ZM195.581 659.86C195.381 659.572 195.168 659.289 194.976 658.993C194.939 658.93 194.897 658.868 194.86 658.801C196.039 658.618 197.214 658.372 198.385 658.01C201.185 657.143 203.931 655.61 206.101 653.414C207.826 651.689 209.131 649.585 210.014 647.36L250.51 647.626C250.289 648.301 250.06 648.976 249.806 649.639C248.385 653.405 246.414 656.997 243.985 660.176L195.581 659.86ZM251.343 644.739L210.876 644.472C211.426 641.926 211.522 639.339 211.218 636.835C211.006 635.143 210.614 633.489 210.085 631.872L252.61 632.151C252.822 636.405 252.381 640.639 251.343 644.739ZM247.339 612.393C247.572 612.839 247.781 613.289 247.997 613.743L123.085 612.914C124.568 608.526 126.435 604.285 128.755 600.36L238.539 601.08C242.11 604.226 245.051 608.151 247.339 612.393ZM217.156 592.96C223.385 593.03 229.468 594.839 234.668 598.164L130.58 597.476C131.276 596.455 132.001 595.451 132.772 594.489C135.201 591.472 137.947 588.718 141.093 586.522C141.876 585.972 142.676 585.455 143.493 584.968L227.339 585.522C224.076 586.551 220.66 587.097 217.193 587.08L217.156 592.96ZM233.818 582.672L149.247 582.114C149.918 581.835 150.593 581.564 151.272 581.314L151.039 576.126C146.101 574.735 141.455 572.522 137.472 569.443L246.401 570.16C246.001 570.83 245.581 571.485 245.11 572.097C244.639 572.743 244.222 573.43 243.71 574.035L242.16 575.843C241.664 576.468 241.106 577.022 240.518 577.555L238.801 579.189C238.193 579.685 237.556 580.143 236.935 580.622C236.306 581.101 235.706 581.614 235.01 581.976C234.622 582.222 234.218 582.443 233.818 582.672ZM252.864 539.23C252.901 539.51 252.956 539.789 252.989 540.076C253.401 543.23 253.418 546.455 253.114 549.668C253.043 550.385 252.956 551.101 252.86 551.822L208.897 551.53C210.901 547.685 211.964 543.368 211.789 538.955L252.864 539.23ZM247.385 523.701C248.706 525.947 249.835 528.326 250.714 530.772C251.393 532.585 251.926 534.443 252.339 536.33L211.485 536.06C211.147 534.16 210.543 532.276 209.614 530.518C208.426 528.268 206.71 526.247 204.647 524.739C203.947 524.23 203.222 523.805 202.485 523.405L247.385 523.701ZM227.76 508.084C235.01 509.868 241.101 514.635 245.493 520.797L195.868 520.472C196.71 519.222 197.626 518.018 198.618 516.893C199.16 516.326 199.656 515.697 200.231 515.168L201.951 513.568C203.189 512.622 204.381 511.601 205.739 510.864C207.81 509.534 210.06 508.597 212.406 507.984L227.76 508.084ZM171.543 554.914C174.981 558.089 179.226 560.593 183.835 561.726L185.56 562.155L187.301 562.418C188.464 562.635 189.631 562.66 190.797 562.718C193.172 562.843 195.86 562.472 198.193 561.535C201.897 560.085 204.901 557.48 207.114 554.414L252.376 554.714C251.526 559.089 250.101 563.355 248.022 567.276L134.172 566.522C132.351 564.701 130.697 562.705 129.243 560.551C127.851 558.443 126.647 556.197 125.585 553.872L170.826 554.176C171.072 554.414 171.289 554.68 171.543 554.914ZM139.21 383.601L223.318 384.151C219.435 386.718 215.647 389.434 211.993 392.326C210.226 393.726 208.489 395.168 206.776 396.639L128.193 396.122C131.685 391.805 135.364 387.63 139.21 383.601ZM251.993 368.855C243.635 372.389 235.522 376.526 227.789 381.289L142.006 380.726C146.314 376.376 150.814 372.193 155.514 368.218L251.993 368.855ZM401.043 382.434C393.472 377.634 385.581 373.351 377.406 369.68L453.097 370.18C457.593 374.201 461.993 378.426 466.285 382.864L401.043 382.434ZM450.481 429.222C448.31 426.284 446.072 423.418 443.668 420.726C442.439 419.314 441.185 417.93 439.922 416.559L512.706 417.039L512.518 429.63L450.481 429.222ZM512.31 445.118L458.002 444.759C457.852 444.214 457.685 443.68 457.539 443.134L457.114 441.605C456.977 441.097 456.835 440.589 456.606 440.001C456.172 438.893 455.822 437.676 455.243 436.726C454.693 435.739 454.214 434.672 453.597 433.755L452.543 432.13L512.477 432.526L512.331 442.418C512.322 443.318 512.318 444.218 512.31 445.118ZM470.422 475.818C468.76 472.972 467.252 470.022 465.86 467.022C465.285 465.759 464.764 464.464 464.239 463.184L536.289 463.659C538.568 464.993 540.51 466.814 541.922 469.026C543.293 471.189 544.139 473.689 544.585 476.309L470.422 475.818ZM541.214 494.664C539.568 496.951 537.443 498.909 534.989 500.405C533.314 501.472 531.493 502.334 529.593 503.005C527.697 503.689 525.731 504.218 523.722 504.547C515.693 505.926 507.202 504.934 499.606 501.918C497.718 501.134 495.852 500.289 494.106 499.243C493.206 498.759 492.381 498.159 491.518 497.622L488.877 495.818C488.152 495.326 487.452 494.818 486.752 494.305L541.214 494.664ZM544.981 480.326C545.052 481.33 544.943 482.355 544.939 483.364L544.885 484.889L544.672 486.334C544.322 488.218 543.785 490.076 542.943 491.784L483.081 491.389C481.785 490.28 480.531 489.122 479.352 487.88C476.668 485.097 474.322 481.997 472.214 478.722L544.927 479.201C544.947 479.576 544.972 479.951 544.981 480.326ZM512.306 455.301C512.327 456.389 512.356 457.476 512.431 458.593C512.464 459.151 512.518 459.726 512.602 460.33C512.614 460.418 512.643 460.518 512.66 460.609L463.06 460.28C461.468 456.147 460.072 451.93 458.827 447.659L512.281 448.014C512.264 450.434 512.264 452.859 512.306 455.301ZM512.747 414.147L437.181 413.647C433.439 409.714 429.585 405.897 425.627 402.189C425.185 401.776 424.739 401.376 424.302 400.968L514.531 401.564C514.293 402.234 514.068 402.909 513.877 403.597C513.264 405.78 512.939 408.043 512.839 410.309C512.777 411.618 512.76 412.884 512.747 414.147ZM473.527 387.151C473.685 386.73 473.86 386.276 474.039 385.809L526.306 386.151C524.064 387.768 522.018 389.655 520.235 391.747C518.452 393.847 516.927 396.18 515.727 398.676L421.122 398.051C416.252 393.634 411.256 389.347 405.727 385.484C405.66 385.439 405.593 385.401 405.531 385.355L469.043 385.776C469.639 386.409 470.243 387.034 470.835 387.68L473.527 387.151ZM433.664 354.564C439.164 358.522 444.543 362.747 449.789 367.268L370.431 366.743C366.739 365.268 362.997 363.901 359.206 362.676C350.947 360.034 342.476 358.005 333.872 356.697C329.547 356.226 325.235 355.576 320.868 355.501C316.522 355.243 312.147 355.239 307.806 355.509C291.135 356.447 274.747 360.209 259.172 366.005L159.018 365.347C164.476 360.93 170.164 356.759 176.076 352.868L433.664 354.564ZM258.718 319.543C275.885 316.134 293.664 314.426 311.66 314.543C327.889 314.651 343.718 316.568 359.047 320.205L258.718 319.543ZM370.164 323.172C381.364 326.501 392.272 330.768 402.835 335.98L209.731 334.705C221.372 329.664 233.572 325.53 246.176 322.351L370.164 323.172ZM203.414 337.559L408.535 338.914C415.697 342.722 422.693 346.972 429.51 351.647L180.56 350.001C187.151 345.889 193.985 342.084 201.051 338.659C201.835 338.28 202.631 337.93 203.414 337.559ZM540.035 380.48C539.672 380.534 539.306 380.589 538.935 380.659C538.281 380.78 537.635 380.922 536.993 381.089C536.814 381.134 536.635 381.193 536.46 381.243C534.602 381.755 532.802 382.443 531.077 383.293L475.243 382.922C476.902 379.18 479.277 374.68 482.497 370.376L539.185 370.751C540.593 373.764 541.527 376.997 541.977 380.247C541.831 380.259 541.685 380.289 541.539 380.301C541.035 380.347 540.535 380.405 540.035 380.48ZM521.139 355.722C521.639 355.851 522.139 355.993 522.635 356.143C522.989 356.251 523.343 356.355 523.681 356.472C524.352 356.709 525.01 356.972 525.664 357.251C525.993 357.397 526.318 357.543 526.635 357.693C527.281 358.005 527.922 358.339 528.539 358.701C528.768 358.834 528.985 358.972 529.202 359.109C529.952 359.58 530.689 360.076 531.385 360.63C533.893 362.609 535.977 365.089 537.643 367.847L484.814 367.497C489.918 361.609 496.785 356.559 505.797 355.043L518.293 355.126C518.672 355.189 519.052 355.259 519.431 355.334C520.014 355.451 520.581 355.58 521.139 355.722ZM54.2054 506.943L155.347 507.609C155.506 511.818 155.855 516.022 156.46 520.21L119.768 519.968C119.814 518.41 119.897 516.839 120.014 515.259L114.164 513.318C112.755 515.505 111.422 517.705 110.118 519.901L46.3013 519.48C48.3888 516.176 50.5346 512.768 52.7929 509.18C53.2596 508.447 53.7346 507.684 54.2054 506.943ZM12.2762 568.614L83.1596 569.085C81.7013 571.668 80.2388 574.393 78.7471 576.726L78.7054 579.655C79.1429 580.305 79.5471 580.989 79.9679 581.655L7.62205 581.18C6.30955 579.993 4.96372 578.839 3.56789 577.73C6.50122 575.018 9.37622 571.98 12.2762 568.614ZM434.643 854.36C460.489 831.597 476.96 811.401 484.677 775.535C485.006 773.985 485.293 772.564 485.556 771.239C486.91 764.468 487.66 760.739 491.606 756.518C494.668 753.251 501.168 750.656 507.885 751.056C507.943 751.06 508.002 751.06 508.06 751.064C508.435 751.085 508.81 751.139 509.185 751.185C509.552 751.231 509.914 751.272 510.277 751.339C510.468 751.372 510.656 751.414 510.847 751.447C511.385 751.564 511.922 751.685 512.452 751.835C512.522 751.86 512.597 751.881 512.672 751.901C513.281 752.085 513.881 752.289 514.468 752.531C514.506 752.547 514.543 752.56 514.581 752.576C515.156 752.81 515.718 753.081 516.272 753.372C516.347 753.414 516.422 753.451 516.502 753.497C517.081 753.81 517.643 754.151 518.189 754.531C522.822 757.676 526.147 762.664 527.41 768.126C528.081 770.856 528.164 773.706 527.793 776.472C527.41 779.085 526.277 781.856 524.931 784.318C523.547 786.797 521.785 789.039 519.689 790.856C518.685 791.831 517.472 792.518 516.322 793.264C515.072 793.839 513.856 794.506 512.502 794.814C511.202 795.301 509.797 795.381 508.427 795.589C507.743 795.739 507.031 795.61 506.331 795.639C505.631 795.618 504.927 795.635 504.222 795.597C502.818 795.356 501.406 795.201 500.01 794.91L495.856 793.735L493.927 794.301L492.66 796.122L492.027 797.035C491.843 797.351 491.681 797.689 491.506 798.018L490.489 800.001L489.731 802.106C488.852 804.939 488.356 807.943 488.585 810.906C488.897 816.843 491.189 822.522 494.906 827.122C496.76 829.401 499.085 831.485 501.889 832.801C504.493 834.039 507.252 835.031 510.143 835.614C513.035 836.151 516.06 836.314 519.018 835.822C520.456 835.618 521.864 835.251 523.231 834.772C522.885 835.976 522.61 837.193 522.422 838.422C522.01 841.151 521.906 843.926 522.189 846.668C522.743 852.16 524.768 857.426 527.656 862.014C528.327 863.21 529.152 864.276 529.977 865.352L531.202 866.968L532.397 868.46C533.206 869.456 533.997 870.456 534.735 871.485C535.51 872.493 536.235 873.531 536.931 874.581C538.327 876.668 539.627 878.831 540.547 881.039C541.006 882.139 541.393 883.256 541.543 884.293C541.635 884.81 541.664 885.314 541.61 885.71C541.606 885.927 541.543 886.072 541.51 886.21C541.485 886.247 541.472 886.339 541.456 886.335C541.464 886.335 541.46 886.339 541.456 886.343C541.468 886.331 541.502 886.302 541.627 886.185L543.152 889.66C549.439 888.577 555.285 886.551 560.818 883.493C566.277 880.422 571.302 876.047 574.402 870.297C575.935 867.435 576.964 864.297 577.448 861.114L578.656 852.151C579.11 849.21 579.598 846.272 580.214 843.401C580.531 841.972 580.86 840.535 581.273 839.181C581.477 838.501 581.697 837.835 581.939 837.218C581.989 837.093 582.043 836.96 582.106 836.826C584.289 837.272 586.593 837.964 588.96 838.564C591.806 839.293 594.764 839.914 597.785 840.181C603.831 840.751 610.056 839.86 615.693 837.722C621.368 835.71 626.777 832.318 630.777 827.501C634.739 822.681 637.106 816.489 636.956 810.097C636.827 806.856 636.064 803.822 634.906 800.931C633.735 798.056 632.123 795.343 630.068 792.956C626.006 788.164 619.914 784.901 613.652 784.393C607.477 783.66 600.818 785.139 595.685 788.847C593.102 790.656 590.86 792.881 588.989 795.356C588.047 796.597 587.214 797.914 586.464 799.293C586.127 799.935 585.806 800.589 585.518 801.281L585.335 801.189C584.593 800.701 583.827 800.281 583.122 799.681C582.768 799.393 582.402 799.126 582.047 798.826L581.039 797.876C580.343 797.268 579.735 796.56 579.114 795.856C576.685 793.014 574.614 789.789 573.043 786.31C569.827 779.364 568.352 771.614 567.843 763.86C567.797 761.906 567.568 759.964 567.664 758.006L567.814 752.122C568.193 748.197 568.493 744.281 569.043 740.335C570.093 732.493 571.706 724.726 573.806 717.093C577.977 701.826 584.181 687.114 592.347 673.593C593.31 671.864 594.435 670.239 595.518 668.593C596.631 666.964 597.643 665.264 598.835 663.689C601.206 660.535 603.477 657.305 606.093 654.351C611.056 648.205 616.764 642.735 622.573 637.414L620.814 632.685L530.868 632.03L528.093 634.768C528.064 640.435 525.71 646.005 521.668 649.968C517.647 653.951 512.047 656.222 506.389 656.164C500.731 656.139 495.164 653.789 491.21 649.751C487.227 645.735 484.96 640.135 485.014 634.489L482.227 631.664L421.343 631.226C411.227 631.189 401.11 631.135 391.306 629.943C386.46 629.297 381.56 628.372 377.627 626.355C375.677 625.351 374.097 624.039 373.172 622.455C372.714 621.66 372.397 620.789 372.21 619.843C372.039 618.83 372.076 618.055 371.972 616.389C371.789 613.46 371.006 610.626 369.822 608.03C368.614 605.443 366.981 603.105 365.093 601.022C361.327 596.843 356.297 593.826 350.76 592.464C347.981 591.822 345.068 591.651 342.264 591.876C339.447 592.172 336.668 592.864 334.047 593.955C328.831 596.193 324.293 600.085 321.431 605.014C320.006 607.472 318.91 610.13 318.306 612.91C317.726 615.66 317.535 618.593 317.685 621.243C317.964 626.614 318.993 631.876 320.689 636.93C324.022 647.068 330.16 656.197 337.96 663.372C345.772 670.576 355.339 675.768 365.393 678.826C375.468 681.88 385.952 683.105 396.318 683.064C397.618 683.089 398.91 683.047 400.206 683.005C401.456 682.972 402.897 682.905 403.96 682.901C406.235 682.872 408.502 683.147 410.706 683.714C415.122 684.843 419.26 687.16 422.877 690.172C430.114 696.272 435.293 704.831 438.214 714.018C439.668 718.626 440.639 723.41 441.018 728.239C441.397 733.055 441.247 737.968 440.689 742.843C440.135 747.718 439.172 752.551 437.872 757.31C437.222 759.685 436.489 762.043 435.677 764.376C434.76 766.656 433.922 768.956 432.952 771.214C428.968 780.218 423.689 788.701 417.452 796.385C411.214 804.072 404.164 811.11 396.372 817.235C394.427 818.768 392.352 820.131 390.352 821.585C389.335 822.297 388.339 823.031 387.314 823.726L384.118 825.626C381.977 826.868 379.893 828.218 377.706 829.372L371.027 832.639C368.839 833.81 366.497 834.643 364.189 835.543C361.868 836.418 359.585 837.397 357.235 838.189L350.093 840.285L346.526 841.335L342.876 842.076L335.572 843.564C334.364 843.856 333.122 843.968 331.889 844.114L328.181 844.543C325.71 844.818 323.243 845.147 320.768 845.381L313.301 845.626C310.81 845.672 308.326 845.881 305.831 845.789L298.343 845.526C295.839 845.51 293.368 845.197 290.885 844.985L287.164 844.639L285.301 844.464L283.46 844.172C263.751 841.564 244.635 834.843 228.593 823.256C220.539 817.531 213.247 810.751 206.306 803.481C199.239 796.189 192.626 788.851 186.86 780.71C175.21 764.581 166.718 746.189 162.018 726.889C159.789 717.218 158.189 707.355 158.01 697.414C157.635 692.447 158.047 687.48 158.156 682.51C158.247 680.03 158.647 677.564 158.876 675.089L159.281 671.385L159.489 669.526L159.831 667.693C160.801 662.81 161.46 657.86 162.897 653.085L164.797 645.86C165.489 643.526 166.297 641.297 167.314 639.151C168.293 636.997 169.464 634.951 170.826 633.097C172.16 631.214 173.714 629.53 175.46 628.122C178.906 625.235 183.168 623.53 187.701 623.039C188.822 622.843 189.989 622.897 191.139 622.826L192.66 622.914C193.147 623.022 193.647 623.085 194.135 623.205C196.072 623.718 197.881 624.747 199.439 626.155C202.581 628.968 204.618 633.255 205.147 637.572C205.414 639.735 205.297 641.918 204.756 643.926C204.185 645.922 203.176 647.705 201.776 649.118C198.993 652.001 194.535 653.118 189.981 653.118L187.151 657.318C187.985 659.23 188.868 660.697 189.876 662.285C190.881 663.83 191.972 665.31 193.176 666.71C193.801 667.393 194.372 668.118 195.043 668.76L197.056 670.689C198.514 671.851 199.931 673.068 201.572 674.005C207.885 678.185 215.876 679.489 223.16 678.568C224.068 678.439 225.018 678.439 225.897 678.189L228.56 677.543C229.451 677.31 230.335 677.147 231.226 676.851L233.893 675.864C237.376 674.36 240.506 672.235 243.256 669.776C248.793 664.843 252.789 658.535 255.393 651.768C257.964 645.001 259.085 637.576 258.485 630.376C257.889 623.172 255.968 616.068 252.593 609.635C249.156 603.264 244.364 597.426 238.151 593.372C236.185 592.085 234.085 591.005 231.91 590.105C234.089 589.226 236.197 588.172 238.176 586.905C238.989 586.464 239.701 585.872 240.439 585.318C241.164 584.751 241.91 584.21 242.622 583.622L244.618 581.726C245.297 581.105 245.943 580.455 246.514 579.739L248.297 577.655C248.881 576.951 249.364 576.18 249.897 575.443C250.997 573.985 251.864 572.389 252.764 570.814C256.285 564.451 258.214 557.351 258.901 550.185C259.589 543.026 258.714 535.551 256.147 528.78C253.66 521.976 249.676 515.668 244.231 510.689C241.51 508.209 238.422 506.055 234.972 504.534C234.101 504.172 233.21 503.851 232.326 503.514C231.443 503.205 230.564 503.034 229.681 502.793L227.031 502.114C226.16 501.859 225.214 501.847 224.31 501.705C217.064 500.705 209.101 501.905 202.772 505.98C201.131 506.897 199.701 508.093 198.239 509.23L196.21 511.126C195.535 511.755 194.96 512.472 194.331 513.143C193.114 514.522 192.006 515.984 190.989 517.505C189.968 519.072 189.068 520.53 188.218 522.414L190.814 526.376C194.693 526.422 198.472 527.255 201.281 529.305C204.081 531.335 205.747 534.614 206.089 538.239C206.451 541.864 205.606 545.714 203.856 549.005C202.122 552.31 199.376 555.039 196.139 556.297C194.493 556.939 192.864 557.189 190.972 557.105C190.006 557.051 189.026 557.043 188.081 556.86L186.651 556.647L185.264 556.301C181.543 555.397 178.197 553.418 175.351 550.814C169.668 545.493 166.231 537.768 164.081 529.86C161.918 521.897 160.989 513.514 160.801 505.168C160.764 500.98 160.789 496.818 161.364 492.714L162.181 486.484L163.331 480.293C165.039 472.08 167.276 463.959 170.406 456.172C173.522 448.384 177.301 440.872 181.726 433.747C190.593 419.489 202.139 406.968 215.276 396.48C228.435 385.98 243.318 377.668 258.997 371.509C274.693 365.393 291.297 361.422 308.076 360.426C312.268 360.147 316.46 360.139 320.651 360.372C324.843 360.426 329.01 361.043 333.189 361.476C341.501 362.709 349.718 364.647 357.756 367.189C373.822 372.297 389.156 379.859 403.164 389.247C409.977 393.959 416.356 399.709 422.585 405.443C428.793 411.23 434.81 417.247 440.381 423.597C443.21 426.743 445.802 430.055 448.239 433.422L449.922 436.005C450.51 436.859 450.897 437.764 451.397 438.639C451.943 439.518 452.143 440.393 452.514 441.264C452.693 441.668 452.839 442.184 452.981 442.718L453.422 444.272C455.685 452.589 458.431 460.834 462.06 468.759C463.943 472.684 465.885 476.601 468.297 480.28C470.652 483.984 473.306 487.539 476.41 490.714C479.468 493.918 482.989 496.722 486.585 499.143L489.239 500.943C490.193 501.543 491.11 502.193 492.097 502.718C494.027 503.859 496.068 504.78 498.131 505.626C506.435 508.884 515.572 509.926 524.402 508.389C526.614 508.018 528.793 507.426 530.914 506.647C533.043 505.889 535.11 504.901 537.039 503.672C540.931 501.272 544.26 497.772 546.31 493.576C547.352 491.484 547.993 489.239 548.402 486.964L548.647 485.234L548.706 483.547C548.714 482.426 548.818 481.305 548.739 480.184C548.597 475.722 547.606 471.039 545.056 467.043C542.522 463.051 538.489 460.068 534.11 458.651C531.922 457.909 529.672 457.455 527.406 457.264C526.26 457.164 525.172 457.13 523.952 457.172C522.752 457.239 521.573 457.434 520.435 457.73C519.293 458.022 518.193 458.418 517.147 458.864L516.106 459.33C516.068 459.009 516.031 458.693 516.006 458.347C515.939 457.33 515.902 456.28 515.877 455.23C515.793 451.001 515.831 446.722 515.86 442.455L516.143 416.805C516.181 414.684 516.16 412.489 516.247 410.43C516.331 408.422 516.606 406.426 517.143 404.493C518.202 400.622 520.172 397.001 522.785 393.909C527.964 387.726 535.835 383.522 543.806 383.418L545.439 381.718C545.431 381.626 545.414 381.543 545.402 381.451C545.368 381.022 545.277 380.097 545.047 378.801C544.948 378.226 544.818 377.655 544.698 377.089C544.668 376.959 544.635 376.83 544.606 376.697C544.135 374.651 543.489 372.668 542.672 370.739C542.581 370.518 542.481 370.297 542.381 370.076C542.181 369.622 542.002 369.159 541.777 368.709C541.685 368.522 541.568 368.347 541.468 368.159C541.11 367.459 540.714 366.759 540.285 366.059C540.181 365.889 540.081 365.722 539.972 365.555C535.406 358.359 527.035 351.455 511.706 351.355C487.947 351.197 476.114 372.234 471.452 383.622C427.477 336.718 372.289 311.734 311.685 311.33C271.922 311.068 233.185 319.518 199.651 335.768C166.06 352.043 137.43 376.272 116.86 405.843C87.3555 448.243 66.6846 481.084 50.0763 507.472C28.0804 542.414 14.8012 563.51 0.0012207 576.622L0.101214 579.11C23.9971 597.143 35.3846 627.83 49.8013 666.689C63.5013 703.61 80.5513 749.556 114.28 798.235C138.589 833.318 172.626 859.706 215.451 876.672C257.164 893.201 293.226 895.189 306.793 895.281C358.139 895.618 404.735 880.706 434.643 854.36Z" fill="#17334A"/>
<path d="M541.456 886.348C541.448 886.356 541.452 886.356 541.456 886.348V886.348Z" fill="#17334A"/>
<path d="M301.268 204.552C299.36 203.656 297.397 202.902 295.406 202.272C297.781 200.697 299.935 198.931 301.906 197.014C304.06 194.943 306.056 192.743 307.86 190.397C307.877 190.372 307.893 190.347 307.91 190.322C309.981 188.306 311.643 186.539 312.693 185.385C313.731 186.556 315.364 188.335 317.406 190.385C317.422 190.406 317.443 190.435 317.46 190.46C319.235 192.831 321.197 195.056 323.327 197.156C325.272 199.102 327.402 200.893 329.756 202.502C327.756 203.102 325.789 203.831 323.864 204.702C321.589 205.752 319.377 207.031 317.389 208.656C315.452 209.847 313.76 211.239 312.514 212.868C311.289 211.222 309.61 209.806 307.689 208.589C305.727 206.939 303.527 205.631 301.268 204.552ZM311.897 217.597C311.914 217.602 311.931 217.597 311.947 217.606C312.118 217.668 312.293 217.71 312.481 217.71C312.664 217.71 312.843 217.672 313.014 217.614C313.031 217.606 313.047 217.61 313.064 217.602C313.097 217.589 313.118 217.564 313.152 217.547C313.285 217.485 313.406 217.41 313.514 217.318C313.564 217.277 313.606 217.243 313.647 217.197C313.743 217.097 313.822 216.981 313.889 216.852C313.914 216.81 313.943 216.772 313.964 216.727C313.968 216.714 313.981 216.706 313.985 216.693C314.814 214.593 316.718 212.835 319.139 211.364C321.193 210.518 323.327 209.86 325.506 209.327C327.914 208.706 330.381 208.256 332.852 207.822C335.302 207.427 337.864 207.056 340.239 206.81L340.447 200.472C338.297 200.077 335.897 198.956 333.589 197.656C331.252 196.36 328.947 194.814 326.656 193.193C324.364 191.572 322.072 189.881 319.768 188.147C319.722 188.118 319.681 188.081 319.635 188.052C316.264 184.668 314.002 181.993 313.943 181.922C313.91 181.889 313.868 181.872 313.839 181.839C313.806 181.81 313.793 181.768 313.76 181.739C313.71 181.697 313.647 181.681 313.593 181.643C313.502 181.585 313.414 181.531 313.314 181.489C313.218 181.451 313.122 181.426 313.022 181.406C312.922 181.385 312.822 181.372 312.722 181.368C312.618 181.368 312.522 181.381 312.418 181.401C312.318 181.418 312.222 181.443 312.127 181.481C312.027 181.522 311.939 181.572 311.843 181.635C311.789 181.668 311.727 181.685 311.677 181.726C311.643 181.756 311.627 181.797 311.597 181.826C311.564 181.856 311.522 181.872 311.493 181.906C311.431 181.976 309.135 184.618 305.722 187.956C305.677 187.989 305.631 188.022 305.585 188.056C303.26 189.756 300.943 191.418 298.631 193.006C296.318 194.597 293.989 196.114 291.639 197.377C289.314 198.647 286.897 199.739 284.743 200.106L284.868 206.447C287.239 206.718 289.793 207.127 292.243 207.556C294.706 208.018 297.168 208.502 299.564 209.152C301.747 209.718 303.877 210.406 305.927 211.289C308.318 212.789 310.189 214.568 310.989 216.677C310.993 216.689 311.006 216.697 311.01 216.706C311.027 216.756 311.06 216.793 311.081 216.835C311.147 216.964 311.227 217.081 311.322 217.185C311.36 217.227 311.406 217.264 311.447 217.302C311.56 217.397 311.681 217.481 311.814 217.539C311.847 217.556 311.868 217.581 311.897 217.597Z" fill="#17334A"/>
<path d="M384.481 201.647C408.139 202.426 419.656 208.48 422.206 210.01C422.864 215.08 422.772 220.18 421.993 221.264C421.968 221.251 421.939 221.239 421.902 221.218C417.36 218.914 391.431 215.91 384.393 215.13L384.481 201.647ZM420.447 224.085C421.06 224.397 421.61 224.514 422.085 224.518C422.86 224.522 423.439 224.218 423.781 223.976C426.806 221.81 425.839 212.66 425.285 208.826L424.635 207.751C424.143 207.397 412.214 199.035 382.918 198.389L381.277 199.985L381.168 216.56L382.602 218.168C395.972 219.61 417.085 222.376 420.447 224.085Z" fill="#17334A"/>
<path d="M356.997 188.059C359.531 188.076 361.577 190.147 361.56 192.68C361.543 195.214 359.468 197.259 356.939 197.243C354.406 197.226 352.36 195.151 352.377 192.622C352.393 190.089 354.468 188.043 356.997 188.059ZM356.914 200.455C361.218 200.48 364.743 197.005 364.772 192.701C364.802 188.397 361.322 184.872 357.018 184.847C352.718 184.818 349.193 188.297 349.164 192.597C349.135 196.901 352.614 200.426 356.914 200.455Z" fill="#17334A"/>
<path d="M356.864 208.089C359.397 208.105 361.443 210.176 361.427 212.709C361.41 215.239 359.335 217.289 356.806 217.272C354.272 217.255 352.227 215.18 352.243 212.647C352.26 210.118 354.335 208.072 356.864 208.089ZM356.781 220.485C361.085 220.51 364.61 217.035 364.639 212.73C364.668 208.426 361.189 204.901 356.885 204.876C352.585 204.847 349.06 208.326 349.031 212.626C349.002 216.93 352.481 220.455 356.781 220.485Z" fill="#17334A"/>
<path d="M240.606 214.181C233.556 214.868 207.589 217.527 203.014 219.772C202.981 219.793 202.947 219.806 202.922 219.818C202.16 218.722 202.135 213.622 202.864 208.556C205.418 207.056 216.914 201.16 240.693 200.697L240.606 214.181ZM200.46 206.272L199.797 207.335C199.193 211.164 198.106 220.297 201.101 222.506C201.439 222.756 202.014 223.064 202.789 223.068C203.264 223.072 203.814 222.96 204.431 222.66C207.818 220.993 228.964 218.506 242.352 217.239L243.81 215.652L243.918 199.077L242.297 197.46C212.997 197.718 200.956 205.927 200.46 206.272Z" fill="#17334A"/>
<path d="M268.293 196.656C265.764 196.639 263.718 194.564 263.735 192.035C263.751 189.502 265.822 187.456 268.355 187.472C270.885 187.489 272.93 189.564 272.914 192.093C272.897 194.627 270.822 196.672 268.293 196.656ZM268.376 184.26C264.072 184.231 260.551 187.71 260.522 192.014C260.493 196.314 263.968 199.839 268.272 199.868C272.576 199.897 276.101 196.418 276.126 192.114C276.156 187.81 272.68 184.289 268.376 184.26Z" fill="#17334A"/>
<path d="M268.16 216.684C265.631 216.667 263.585 214.592 263.601 212.063C263.618 209.53 265.689 207.484 268.222 207.501C270.751 207.517 272.797 209.588 272.781 212.122C272.764 214.655 270.689 216.701 268.16 216.684ZM268.243 204.288C263.939 204.259 260.418 207.738 260.389 212.038C260.36 216.342 263.835 219.867 268.139 219.897C272.443 219.926 275.968 216.447 275.993 212.142C276.022 207.838 272.547 204.317 268.243 204.288Z" fill="#17334A"/>
<path d="M307.06 103.076C305.701 101.014 305.093 98.7927 305.101 96.5552C305.131 94.3219 305.768 92.1136 307.151 90.0677C307.831 89.0719 308.676 88.1344 309.722 87.2761C310.843 86.8094 312.068 86.5469 313.343 86.5136C314.635 86.5636 315.864 86.8469 316.985 87.3386C318.006 88.2011 318.835 89.1469 319.497 90.1427C320.856 92.2094 321.464 94.4302 321.456 96.6636C321.427 98.8969 320.789 101.109 319.406 103.151C318.727 104.147 317.881 105.084 316.835 105.943C315.714 106.409 314.493 106.672 313.214 106.705C311.922 106.655 310.697 106.372 309.572 105.88C308.547 105.018 307.722 104.076 307.06 103.076ZM312.639 109.889C312.714 109.901 312.781 109.934 312.86 109.934C312.972 109.934 313.081 109.922 313.189 109.922C313.302 109.922 313.41 109.934 313.522 109.939C313.597 109.939 313.664 109.905 313.743 109.897C315.285 109.805 316.76 109.459 318.118 108.889C319.827 108.584 321.518 107.859 322.956 106.747C323.993 105.968 324.889 104.989 325.635 103.893C325.931 104.505 326.26 105.089 326.631 105.634C327.643 107.064 328.897 108.272 330.356 109.222C331.818 110.159 333.481 110.851 335.289 111.147C336.168 111.272 337.093 111.309 338.014 111.197C338.889 111.48 339.772 111.709 340.656 111.847C340.735 111.864 340.818 111.868 340.893 111.868C341.677 111.872 342.368 111.309 342.489 110.514C342.631 109.634 342.031 108.809 341.152 108.676C340.435 108.564 339.718 108.372 339.002 108.143C338.435 107.555 337.897 107.03 337.343 106.534C336.227 105.509 335.093 104.614 333.852 103.826C332.614 103.03 331.289 102.322 329.81 101.73C329.089 101.447 328.339 101.193 327.531 100.976C327.422 100.884 327.31 100.784 327.214 100.697C327.639 99.4136 327.885 98.0636 327.881 96.7052C327.897 95.2761 327.656 93.8552 327.202 92.5094C327.527 92.5469 327.881 92.5886 328.26 92.6261C329.393 93.1219 330.556 93.5052 331.714 93.8177C334.147 94.4469 336.627 94.7261 339.093 94.7302C341.56 94.7219 344.022 94.4302 346.439 93.8136C347.618 93.5094 348.789 93.1302 349.939 92.6469C351.147 92.5469 352.372 92.4427 353.656 92.3052C354.539 92.2094 355.177 91.4177 355.081 90.5344C354.985 89.6552 354.21 89.0094 353.314 89.1094C352.064 89.2427 350.856 89.3511 349.681 89.4469C348.489 89.1552 347.318 88.9469 346.147 88.7677C343.768 88.4386 341.418 88.2844 339.077 88.3052C336.735 88.3052 334.402 88.4719 332.035 88.7927C330.893 88.9552 329.747 89.1552 328.585 89.4177C326.964 89.2511 325.881 89.0886 325.377 89.0011C324.714 88.0969 323.952 87.2761 323.081 86.6052C322.406 86.0677 321.66 85.626 320.893 85.2635C321.393 84.8469 321.985 84.3552 322.643 83.7885C323.952 83.1594 325.202 82.4427 326.406 81.6719C328.91 80.0469 331.197 78.1344 333.268 75.976C335.339 73.8302 337.177 71.4052 338.618 68.6802C339.289 67.3719 339.906 65.9719 340.335 64.5135C341.218 63.0302 341.931 61.5677 342.402 60.1677C342.685 59.326 342.231 58.4135 341.389 58.1302C340.552 57.8469 339.639 58.301 339.356 59.1427C338.96 60.3177 338.356 61.551 337.61 62.8177C336.577 63.776 335.568 64.701 334.568 65.6594C332.552 67.5802 330.56 69.5135 328.618 71.5385C326.685 73.5677 324.818 75.6885 323.022 77.9427C322.164 79.0427 321.327 80.1719 320.522 81.3594C318.922 82.7344 317.747 83.6802 317.31 84.0302C316.235 83.6552 315.097 83.4177 313.918 83.3344C313.843 83.3219 313.777 83.2885 313.697 83.2844C313.585 83.2844 313.477 83.2969 313.368 83.301C313.256 83.2969 313.147 83.2844 313.035 83.2844C312.96 83.2844 312.889 83.3135 312.814 83.326C311.631 83.3969 310.493 83.6177 309.41 83.9802C308.976 83.626 307.818 82.6594 306.235 81.2677C305.447 80.0677 304.626 78.9302 303.781 77.8177C302.018 75.5385 300.176 73.3927 298.268 71.3385C296.356 69.2885 294.389 67.326 292.401 65.3802C291.414 64.4094 290.414 63.4719 289.393 62.4969C288.664 61.226 288.076 59.9802 287.697 58.801C287.426 57.9552 286.518 57.4885 285.676 57.7635C284.835 58.0344 284.368 58.9385 284.639 59.7844C285.093 61.1927 285.785 62.6635 286.647 64.1594C287.056 65.6219 287.656 67.0302 288.31 68.3469C289.714 71.0927 291.522 73.5427 293.564 75.7135C295.601 77.901 297.868 79.8427 300.347 81.501C301.543 82.2885 302.781 83.0219 304.085 83.6677C304.735 84.2385 305.314 84.7344 305.81 85.1594C305.035 85.5094 304.285 85.9427 303.601 86.4719C302.718 87.1344 301.943 87.9469 301.272 88.8427C300.76 88.9261 299.681 89.0719 298.072 89.2177C296.91 88.9386 295.772 88.7261 294.626 88.5469C292.264 88.1927 289.935 87.9969 287.593 87.9636C285.251 87.9136 282.901 88.0386 280.514 88.3386C279.347 88.4969 278.168 88.6927 276.976 88.9677C275.801 88.8552 274.593 88.7302 273.347 88.5802C272.456 88.4677 271.664 89.1052 271.56 89.9844C271.456 90.8636 272.081 91.6636 272.964 91.7719C274.247 91.9261 275.468 92.0469 276.676 92.1636C277.818 92.6636 278.985 93.0552 280.16 93.3761C282.568 94.0219 285.022 94.3469 287.493 94.3886C289.96 94.4136 292.439 94.1677 294.881 93.5761C296.043 93.2761 297.21 92.9094 298.351 92.4302C298.726 92.3969 299.081 92.3594 299.406 92.3261C298.935 93.6677 298.672 95.0886 298.676 96.5136C298.66 97.8719 298.885 99.2219 299.297 100.509C299.197 100.597 299.081 100.697 298.976 100.789C298.16 100.993 297.41 101.239 296.681 101.509C295.193 102.084 293.86 102.776 292.614 103.555C291.36 104.322 290.218 105.205 289.085 106.214C288.522 106.705 287.976 107.222 287.406 107.801C286.685 108.022 285.968 108.201 285.247 108.305C284.372 108.43 283.76 109.247 283.885 110.122C284.001 110.922 284.681 111.497 285.464 111.501C285.543 111.501 285.622 111.497 285.706 111.489C286.589 111.359 287.476 111.139 288.351 110.872C289.272 110.993 290.197 110.968 291.076 110.859C292.889 110.584 294.56 109.914 296.035 108.993C297.506 108.064 298.776 106.872 299.806 105.455C300.189 104.914 300.526 104.33 300.831 103.722C301.564 104.826 302.447 105.822 303.476 106.614C304.889 107.734 306.551 108.476 308.243 108.805C309.601 109.405 311.085 109.776 312.639 109.889Z" fill="#17334A"/>
<path d="M30.9179 123.518C40.7137 113.068 57.2971 119.034 57.4596 119.093L59.4721 116.901C58.8387 115.564 58.3846 114.284 58.0304 113.043C57.8262 112.226 57.6012 111.414 57.5554 110.58C57.2012 108.418 57.3846 106.239 57.8137 104.151C58.2596 102.064 59.1012 100.064 60.2471 98.2511C60.8221 97.3511 61.4554 96.4844 62.1554 95.6761C62.4971 95.2719 62.8762 94.8594 63.2596 94.4802C64.3429 95.0511 65.4012 95.7011 66.4054 96.4761C67.7471 97.5719 69.0137 98.8052 70.1971 100.139C71.3679 101.484 72.4637 102.922 73.4762 104.418C74.4679 105.897 75.4637 107.509 76.2304 108.984L81.4304 107.618C81.5012 105.901 81.6179 104.189 82.2762 102.609C82.8887 101.034 83.7179 99.5136 84.8762 98.1677C86.0137 96.8177 87.3554 95.5886 88.8388 94.5136C89.5804 93.9761 90.3554 93.4719 91.1554 93.0177C91.6887 92.7011 92.2971 92.3844 92.8471 92.1261C94.2929 92.4427 96.2471 93.9552 97.7679 95.9052C98.6554 96.9969 99.4929 98.1886 100.251 99.4552C101.001 100.693 101.747 102.076 102.31 103.301L108.01 103.447C108.818 102.014 109.893 100.747 111.255 99.6719C112.66 98.6385 114.31 97.8219 116.072 97.1636C117.83 96.4969 119.747 96.0677 121.689 95.7511C122.939 95.5552 124.28 95.4219 125.56 95.3552C126.064 96.8636 126.343 98.5719 126.447 100.339C126.605 102.809 126.397 105.414 126.01 108.005C125.639 110.601 125.126 113.222 124.443 115.809C123.78 118.38 122.98 121.022 122.093 123.434L124.318 127.339C125.447 127.518 126.639 127.984 127.81 128.659C128.985 129.33 130.105 130.268 131.18 131.255C132.255 132.259 133.268 133.389 134.235 134.559C134.851 135.314 135.443 136.122 136.005 136.926L134.468 139.134L131.73 142.568C129.789 144.739 127.776 146.864 125.522 148.668C123.293 150.501 120.889 152.126 118.293 153.297C116.989 153.851 115.66 154.376 114.297 154.697C113.38 154.943 112.372 155.105 111.46 155.18C110.755 155.209 110.355 155.176 110.339 155.172L109.514 158.251L111.676 159.143C113.214 160.055 128.364 168.83 141.743 168.918C144.597 168.934 147.018 167.864 148.935 165.73C154.08 159.993 154.135 147.693 153.814 141.668C158.626 144.743 169.043 150.268 181.876 150.351C189.601 150.405 195.472 145.339 198.843 135.709C200.03 132.318 200.705 128.947 201.089 126.351C204.989 131.726 213.456 140.426 227.456 140.518C242.897 140.618 247.56 126.689 248.914 119.847C253.851 125.339 266.076 136.859 281.797 136.964C302.689 137.101 305.126 111.051 305.147 110.784L302.101 109.943C299.231 115.78 295.156 119.405 289.993 120.714C280.281 123.172 269.139 116.989 265.472 114.701L271.347 104.826L269.976 102.397C260.272 102.334 251.422 91.1011 249.006 87.7594C254.014 82.0594 267.901 80.0469 268.047 80.026L268.276 76.8969C262.751 75.276 257.626 65.6427 255.476 60.626C258.901 59.2635 268.439 56.2552 279.047 59.8719L281.081 57.8135C277.001 46.2468 277.601 35.4968 277.968 31.8927C289.751 31.6677 301.493 41.2427 301.614 41.3427L304.097 39.4468C295.089 19.3843 309.814 6.43014 313.843 3.3718C316.181 5.32181 318.372 7.69682 320.156 10.2093C322.156 13.0552 323.685 16.1926 324.572 19.4635C325.093 21.0843 325.235 22.776 325.472 24.4343C325.476 26.1218 325.606 27.7968 325.289 29.4718C325.193 31.1552 324.656 32.7802 324.235 34.4177C324.076 35.2468 323.643 36.0177 323.347 36.8135L322.372 39.1843L326.251 42.2218C327.956 40.9635 329.956 39.7135 331.914 38.6427C333.901 37.5677 335.939 36.6093 338.01 35.7927C340.089 35.0052 342.206 34.4093 344.326 34.0052C345.631 33.7843 346.926 33.6802 348.206 33.6677C348.281 35.0552 348.301 36.501 348.264 37.8968C348.21 40.1552 348.043 42.4135 347.735 44.6468C347.426 46.8802 347.051 49.1052 346.506 51.2885C346.01 53.4802 345.306 55.6135 344.568 57.7219L348.456 61.7594C350.406 61.201 352.376 60.6885 354.406 60.501C356.418 60.2469 358.464 60.2344 360.501 60.3927C362.535 60.5344 364.568 60.8719 366.551 61.3927C367.501 61.6427 368.443 61.9344 369.368 62.2594C368.997 63.0302 368.618 63.7969 368.226 64.5385C367.339 66.2385 366.356 67.8719 365.301 69.4094C364.256 70.9552 363.106 72.3885 361.872 73.5677C360.647 74.7427 359.31 75.6802 358.126 76.0219L358.493 82.1344C360.197 82.4094 362.081 82.8302 363.839 83.2969C365.626 83.7635 367.376 84.3219 369.047 84.9802C370.726 85.626 372.339 86.3844 373.747 87.2719C374.501 87.7386 375.197 88.2469 375.801 88.7802C374.897 89.9594 373.914 91.1386 372.918 92.2344C371.368 93.9219 369.735 95.5427 367.972 96.9261C366.21 98.3052 364.368 99.5719 362.422 100.434C360.481 101.301 358.485 101.805 356.51 101.893L354.168 105.914L359.668 115.08C357.193 116.584 354.485 117.93 351.772 118.968C348.301 120.255 344.693 121.222 341.097 121.259C337.522 121.309 333.964 120.484 331.047 118.451C330.181 117.876 329.376 117.201 328.618 116.468C326.951 114.751 325.489 112.643 324.276 110.089L321.222 110.893C321.239 111.155 323.331 137.234 344.222 137.376C359.947 137.48 372.318 126.122 377.331 120.697C378.593 127.551 383.068 141.547 398.514 141.647C412.514 141.739 421.097 133.151 425.064 127.83C425.414 130.43 426.043 133.809 427.185 137.218C430.431 146.893 436.231 152.03 443.96 152.08C456.789 152.168 467.281 146.78 472.135 143.768C471.731 149.789 471.627 162.089 476.697 167.893C478.581 170.051 480.989 171.155 483.843 171.176C497.222 171.259 512.485 162.689 514.035 161.797L516.21 160.934L515.439 157.843C515.293 157.859 502.377 158.964 488.839 139.218C490.489 136.705 495.747 129.414 501.639 128.576L502.914 126.409C502.835 126.205 495.293 106.309 499.96 96.2261C503.46 96.3219 515.793 97.2552 519.831 105.468L522.731 105.434C524.239 102.176 529.143 93.8427 533.972 93.5177C535.922 94.4427 546.66 100.055 546.106 110.734L549.127 111.572C549.189 111.459 555.081 100.559 563.347 96.9136C564.585 98.2094 565.764 99.7677 566.627 101.389C567.677 103.305 568.397 105.38 568.706 107.509C569.006 109.63 569.043 111.801 568.56 113.914C568.431 114.984 568.002 116.005 567.714 117.047C567.352 118.072 566.843 119.059 566.422 120.068L568.918 122.859C575.089 121.064 582.227 120.734 588.01 123.122C593.714 125.439 598.489 131.018 597.802 136.655C597.272 142.268 591.693 147.434 586.256 147.318C585.577 147.405 584.939 147.172 584.281 147.105C583.622 146.955 582.881 146.693 582.231 146.439C580.918 145.889 579.818 145.109 578.947 144.168C578.085 143.222 577.481 142.055 577.139 140.751C576.947 140.105 576.872 139.409 576.814 138.718C576.772 138.064 576.806 137.222 576.872 136.789L573.531 133.439C570.96 133.905 568.656 134.522 566.268 135.264C563.91 136.018 561.572 136.876 559.297 137.972C557.027 139.08 554.777 140.314 552.689 141.939C550.614 143.572 548.652 145.526 547.156 147.968L547.202 148.914C546.306 147.909 545.347 146.947 544.277 146.093C543.152 145.214 541.927 144.464 540.656 143.797C541.427 142.822 542.406 142.072 543.435 141.047C544.047 140.447 544.672 139.764 545.41 139.172C546.139 138.568 546.943 138.039 547.772 137.53C551.11 135.514 554.777 133.739 558.547 132.197C558.643 132.155 558.71 132.059 558.702 131.951C558.697 131.818 558.581 131.718 558.443 131.726C556.372 131.864 554.339 132.214 552.289 132.614C550.256 133.043 548.218 133.576 546.227 134.339C545.227 134.709 544.243 135.151 543.235 135.601C542.231 136.051 541.189 136.539 540.243 137.247C539.297 137.943 538.464 138.88 537.847 140.026C537.485 140.689 537.218 141.447 537.072 142.23C536.181 141.93 535.268 141.684 534.335 141.489C534.414 139.73 534.222 137.955 533.668 136.309C533.214 135.101 532.622 133.943 531.931 132.876C531.272 131.78 530.606 130.722 529.914 129.68C528.506 127.618 526.91 125.718 525.189 123.968C523.443 122.247 521.652 120.597 519.643 119.205C519.56 119.147 519.439 119.147 519.356 119.218C519.252 119.301 519.235 119.451 519.318 119.559L519.327 119.564C522.327 123.272 524.806 127.339 526.772 131.476C527.239 132.522 527.706 133.559 528.01 134.655C528.193 135.193 528.335 135.734 528.452 136.284C528.577 136.826 528.764 137.347 528.906 137.876C529.243 138.901 529.597 139.905 529.968 140.922C529.439 140.905 528.91 140.901 528.377 140.93C526.414 141.03 524.464 141.539 522.702 142.414C519.168 144.143 516.314 147.205 515.202 150.801C515.185 150.872 515.193 150.955 515.231 151.018C515.31 151.134 515.468 151.172 515.585 151.093C518.731 149.159 521.506 147.672 524.493 146.83C525.972 146.397 527.435 146.039 528.939 145.722C530.447 145.372 532.031 145.243 533.614 145.343C535.206 145.447 536.777 145.747 538.356 146.247C539.927 146.722 541.464 147.334 542.91 148.147C544.502 148.98 545.964 150.064 547.318 151.301L547.322 151.347C547.618 151.801 548.093 152.622 548.381 153.33C548.714 154.068 548.964 154.834 549.177 155.597C549.577 157.134 549.677 158.693 549.472 160.18C549.127 163.176 547.327 165.884 544.843 168.134C542.585 170.184 539.777 170.868 536.61 170.397C535.039 170.134 533.435 169.618 531.877 168.922C530.36 168.239 528.714 167.301 527.502 166.401L524.381 165.964L522.21 166.818C516.006 168.309 511.006 171.747 506.664 175.455C502.402 179.151 498.689 183.259 495.218 187.509C491.422 188.589 484.468 189.589 476.256 186.168C475.01 185.647 473.914 185.047 472.897 184.414C470.872 183.005 469.081 181.33 467.714 179.343C466.652 177.855 465.831 176.205 465.239 174.48C464.947 173.622 464.706 172.743 464.522 171.864C464.339 171.009 464.202 170.022 464.172 169.33L460.393 167.705C459.76 168.184 458.793 168.776 457.918 169.234C457.002 169.697 456.06 170.114 455.089 170.464C453.152 171.176 451.127 171.643 449.072 171.843C444.977 172.334 440.785 171.801 436.781 170.593C432.781 169.368 428.972 167.509 426.143 164.83C424.714 163.514 423.506 162.005 422.643 160.339C422.222 159.505 421.839 158.647 421.597 157.759C421.46 157.326 421.364 156.876 421.285 156.443C421.247 156.23 421.206 156.009 421.193 155.809C421.164 155.63 421.151 155.347 421.151 155.347L416.097 152.797C412.647 155.247 408.647 157.468 404.71 159.109C402.727 159.943 400.701 160.622 398.697 161.009C396.697 161.426 394.693 161.593 392.897 161.284C389.235 160.78 385.626 158.447 382.422 155.672C379.26 152.834 376.326 149.326 374.031 145.776L369.976 144.968C367.993 146.409 365.518 147.847 363.11 149.034C360.66 150.23 358.122 151.28 355.51 152.105C352.893 152.914 350.226 153.589 347.514 154.034C346.164 154.297 344.793 154.409 343.422 154.589L341.36 154.718C340.668 154.776 339.985 154.801 339.331 154.755L337.331 154.697C336.664 154.655 336.014 154.501 335.347 154.409C335.056 154.376 334.764 154.326 334.472 154.268C321.014 150.843 314.551 136.668 314.481 136.505C314.447 136.434 314.393 136.384 314.351 136.322C314.289 136.222 314.231 136.118 314.147 136.03C314.064 135.947 313.968 135.893 313.868 135.83C313.806 135.789 313.751 135.726 313.681 135.693C313.664 135.684 313.647 135.689 313.635 135.68C313.522 135.634 313.401 135.622 313.285 135.601C313.197 135.584 313.114 135.555 313.022 135.555C312.935 135.555 312.843 135.584 312.751 135.601C312.635 135.618 312.518 135.63 312.41 135.676C312.393 135.68 312.376 135.68 312.36 135.684C312.285 135.718 312.235 135.78 312.168 135.822C312.072 135.884 311.972 135.939 311.889 136.018C311.806 136.101 311.751 136.197 311.689 136.297C311.647 136.364 311.585 136.414 311.551 136.484C311.476 136.647 304.872 150.722 291.36 153.98C291.06 154.034 290.756 154.084 290.447 154.109C289.781 154.193 289.131 154.339 288.464 154.372L286.464 154.409C285.806 154.443 285.126 154.409 284.431 154.343L282.368 154.184C281.006 153.989 279.631 153.859 278.285 153.58C275.581 153.097 272.922 152.389 270.318 151.543C267.718 150.684 265.193 149.601 262.76 148.372C260.368 147.151 257.91 145.684 255.947 144.214L251.885 144.972C249.539 148.493 246.56 151.959 243.36 154.751C240.118 157.484 236.481 159.776 232.81 160.23C231.01 160.509 229.01 160.322 227.014 159.876C225.018 159.459 223.001 158.759 221.026 157.897C217.114 156.205 213.143 153.93 209.726 151.439L204.639 153.918C204.639 153.918 204.622 154.201 204.593 154.38C204.576 154.58 204.531 154.797 204.489 155.014C204.406 155.447 204.301 155.893 204.16 156.326C203.905 157.205 203.514 158.064 203.08 158.889C202.193 160.547 200.972 162.039 199.522 163.334C196.655 165.976 192.826 167.784 188.81 168.955C184.789 170.114 180.589 170.589 176.501 170.043C174.451 169.814 172.43 169.322 170.501 168.584C169.539 168.222 168.601 167.793 167.693 167.318C166.822 166.851 165.864 166.243 165.239 165.759L161.435 167.334C161.401 168.022 161.247 169.009 161.051 169.859C160.86 170.739 160.605 171.614 160.301 172.472C159.685 174.184 158.847 175.826 157.764 177.301C156.372 179.268 154.56 180.918 152.518 182.297C151.493 182.918 150.389 183.501 149.135 184.005C137.943 188.501 129.064 184.859 127.389 184.08C118.539 173.368 110.322 167.147 102.814 165.509L100.676 164.626L99.0971 164.83C98.9846 164.914 87.6429 173.284 79.9429 166.384C70.0387 157.505 77.0554 147.776 77.3554 147.368L77.3596 147.268L77.3679 147.259C80.0471 142.997 83.5721 140.051 88.1054 138.28C89.4971 137.851 90.9179 137.534 92.3596 137.334C95.4638 136.88 98.5388 137.464 101.605 137.459C104.718 137.509 107.814 137.751 111.347 137.889C111.41 137.889 111.48 137.868 111.535 137.818C111.639 137.722 111.647 137.555 111.551 137.451C110.322 136.109 108.805 135.114 107.214 134.334C105.614 133.539 103.905 132.989 102.155 132.655C100.493 132.297 98.8096 132.293 97.1388 132.476C97.4596 131.618 97.7763 130.768 98.0763 129.901C98.2179 129.376 98.4179 128.855 98.5471 128.314C98.6721 127.768 98.8221 127.226 99.0096 126.693C99.3263 125.601 99.8138 124.568 100.289 123.526C102.31 119.422 104.847 115.384 107.897 111.718L107.901 111.714C107.968 111.63 107.98 111.514 107.914 111.422C107.839 111.309 107.689 111.28 107.576 111.355C105.555 112.722 103.743 114.343 101.972 116.047C100.23 117.772 98.6096 119.647 97.1763 121.693C96.4679 122.722 95.7846 123.776 95.1179 124.859C94.4096 125.922 93.8013 127.072 93.3304 128.272C92.7679 129.876 92.5512 131.605 92.5971 133.334C92.2554 133.418 91.9179 133.505 91.5846 133.593C90.9971 133.751 90.4263 133.951 89.8512 134.143C89.7138 133.359 89.4554 132.601 89.1054 131.934C88.5054 130.776 87.6804 129.83 86.7429 129.122C85.8096 128.401 84.7762 127.901 83.7762 127.434C82.7721 126.976 81.7929 126.518 80.8012 126.134C78.8179 125.347 76.7887 124.784 74.7596 124.33C72.7179 123.905 70.6887 123.526 68.6179 123.359C68.5137 123.355 68.4137 123.414 68.3721 123.514C68.3221 123.639 68.3804 123.78 68.5054 123.83C72.2596 125.422 75.9012 127.247 79.2096 129.309C80.0387 129.826 80.8304 130.368 81.5512 130.98C82.2846 131.58 82.9012 132.276 83.5054 132.88C84.4971 133.893 85.4471 134.647 86.1929 135.597C82.1387 137.33 78.7387 139.984 76.0554 143.526C68.9429 134.455 53.0512 131.401 52.3262 131.268L50.4471 133.101C50.5096 133.476 51.7971 142.268 42.1512 144.622C37.372 145.793 31.8304 143.097 28.9804 138.218C26.1345 133.347 26.8554 127.855 30.9179 123.518ZM196.043 122.78C195.164 125.68 193.172 128.314 190.218 129.58C190.201 129.584 190.18 129.593 190.164 129.597C184.13 131.384 177.497 126.993 175.368 119.809C174.33 116.293 174.514 112.655 175.893 109.559C177.23 106.555 179.535 104.43 182.393 103.568C182.414 103.564 182.43 103.555 182.455 103.551C185.639 102.98 188.76 104.114 191.089 106.076C193.455 108.03 195.126 110.747 196.018 113.697C196.047 113.801 196.068 113.909 196.097 114.014C196.197 114.589 196.318 115.164 196.472 115.734C196.86 118.084 196.755 120.509 196.043 122.78ZM193.96 101.834C195.143 101.843 196.33 101.68 197.501 101.334C197.53 101.326 197.555 101.314 197.58 101.305C198.185 101.176 198.776 100.984 199.36 100.764C198.518 101.764 197.793 102.905 197.226 104.18C197.089 104.493 196.976 104.809 196.855 105.13C195.905 104.109 194.839 103.201 193.647 102.451C193.21 102.176 192.755 101.926 192.289 101.697C192.843 101.776 193.401 101.83 193.96 101.834ZM181.98 89.0885C179.868 81.9302 183.014 74.6635 189.001 72.8469C189.022 72.8427 189.047 72.8344 189.068 72.8302C192.251 72.2594 195.372 73.3927 197.701 75.3552C200.068 77.3094 201.739 80.026 202.626 82.9802C203.489 85.9385 203.576 89.1261 202.655 92.0594C201.776 94.9594 199.785 97.5927 196.826 98.8594C196.81 98.8636 196.793 98.8719 196.776 98.8761C190.747 100.664 184.11 96.2719 181.98 89.0885ZM206.064 99.2302C206.085 99.2261 206.105 99.2177 206.126 99.2136C209.314 98.6427 212.435 99.7761 214.764 101.739C217.131 103.693 218.801 106.409 219.693 109.359C220.556 112.318 220.639 115.509 219.718 118.443C218.839 121.343 216.847 123.976 213.893 125.243C213.872 125.247 213.856 125.255 213.839 125.259C210.951 126.114 207.839 125.589 205.06 123.784C203.655 122.868 202.418 121.68 201.405 120.284C201.855 117.609 201.68 114.83 200.926 112.243C200.439 110.609 199.701 109.034 198.772 107.593C198.964 106.772 199.23 105.98 199.568 105.222C200.901 102.218 203.21 100.093 206.064 99.2302ZM411.939 126.568C411.922 126.559 411.906 126.555 411.885 126.547C408.947 125.243 406.989 122.584 406.151 119.672C405.268 116.73 405.397 113.539 406.297 110.593C407.222 107.651 408.935 104.959 411.322 103.034C413.681 101.105 416.814 100.014 419.993 100.626C420.014 100.63 420.035 100.639 420.056 100.643C422.901 101.547 425.177 103.701 426.472 106.718C426.802 107.48 427.056 108.28 427.239 109.101C426.289 110.53 425.535 112.093 425.022 113.722C424.231 116.301 424.018 119.076 424.439 121.755C423.406 123.139 422.156 124.309 420.735 125.209C417.935 126.976 414.814 127.455 411.939 126.568ZM423.706 84.4385C424.635 81.4969 426.339 78.8052 428.731 76.8802C431.089 74.9469 434.222 73.8594 437.402 74.4719C437.422 74.4719 437.443 74.4802 437.464 74.4844C443.427 76.3802 446.481 83.6885 444.268 90.8177C442.047 97.9719 435.352 102.276 429.352 100.414C429.331 100.409 429.314 100.397 429.293 100.393C426.356 99.0886 424.397 96.4302 423.556 93.5136C422.677 90.5719 422.806 87.3844 423.706 84.4385ZM432.431 104.03C431.231 104.759 430.152 105.655 429.185 106.664C429.072 106.343 428.96 106.022 428.827 105.709C428.277 104.422 427.568 103.276 426.743 102.264C427.322 102.493 427.91 102.693 428.51 102.83C428.539 102.839 428.564 102.851 428.589 102.859C429.76 103.222 430.943 103.397 432.127 103.405C432.685 103.409 433.243 103.364 433.793 103.293C433.327 103.514 432.872 103.759 432.431 104.03ZM443.606 105.276C443.627 105.28 443.647 105.289 443.668 105.289C446.514 106.193 448.793 108.347 450.089 111.368C451.422 114.48 451.564 118.122 450.472 121.622C448.256 128.78 441.56 133.084 435.556 131.218C435.535 131.214 435.518 131.205 435.502 131.197C432.564 129.893 430.606 127.234 429.764 124.322C429.085 122.043 429.01 119.618 429.431 117.268C429.589 116.701 429.722 116.13 429.827 115.555C429.856 115.451 429.881 115.347 429.91 115.243C430.839 112.301 432.547 109.609 434.939 107.684C437.293 105.755 440.431 104.664 443.606 105.276ZM468.189 243.026L468.277 242.847C468.285 242.885 468.243 242.968 468.189 243.026ZM147.139 234.726C147.03 233.976 148.493 231.422 149.364 229.893C150.58 227.772 151.672 225.843 151.976 224.189C155.31 224.126 163.076 223.926 169.772 223.343C166.66 226.055 162.53 230.46 158.522 237.072C156.993 236.314 154.868 236.122 152.647 235.939C150.622 235.768 147.555 235.514 147.139 234.726ZM467.114 237.418C466.668 237.535 466.118 237.714 465.535 238.018C461.814 231.939 458.01 227.83 455.097 225.226C460.939 225.814 467.606 226.118 471.427 226.255C471.456 226.501 471.489 226.73 471.539 226.901C471.656 227.505 471.822 227.897 471.981 228.343C472.306 229.18 472.656 229.88 473.01 230.56L475.056 234.268C475.368 234.847 475.652 235.405 475.881 235.918C475.922 236.01 475.964 236.11 476.002 236.21C475.877 236.251 475.752 236.293 475.568 236.322C474.543 236.547 473.206 236.651 471.814 236.764C470.397 236.889 468.939 236.947 467.114 237.418ZM160.747 239.61C168.189 226.905 176.33 222.497 176.41 222.455L175.41 219.443C168.18 220.622 154.91 220.922 151.247 220.984C149.322 217.422 147.414 214.026 145.535 210.801C148.28 209.339 154.918 205.964 164.951 201.818C171.397 199.543 177.88 197.418 184.393 195.401C187.864 194.347 191.33 193.284 194.826 192.322C198.322 191.364 201.78 190.28 205.318 189.472L215.847 186.784L226.456 184.418C229.968 183.543 233.551 182.968 237.097 182.222C240.647 181.505 244.201 180.801 247.785 180.255L258.51 178.422L269.289 176.914C276.472 175.784 283.71 175.176 290.951 174.309C291.026 174.301 291.106 174.293 291.181 174.284C298.193 173.943 305.389 173.78 312.768 173.826C402.022 174.418 464.772 205.134 478.222 212.314C477.422 213.651 476.602 214.989 475.822 216.339L473.714 220.014L472.177 222.789L472.027 223.059C467.01 222.88 455.893 222.376 449.51 221.255L448.468 224.247C448.547 224.293 456.089 228.497 463.156 240.314L462.939 240.764L462.472 241.71L460.635 245.51L457.593 252.005C447.402 245.668 406.485 224.585 312.439 223.964C215.01 223.322 174.305 245.393 165.935 250.701C164.405 247.33 162.664 243.58 160.747 239.61ZM167.276 253.68C174.114 249.343 214.806 226.535 312.418 227.176C368.389 227.547 405.064 235.451 425.977 242.018C442.806 247.305 452.381 252.585 456.239 254.98C454.402 259.014 452.631 263.072 450.931 267.193C390.764 243.018 313.106 242.226 312.318 242.222C311.526 242.214 233.068 241.985 172.46 265.726C171.585 263.605 169.785 259.305 167.276 253.68ZM312.06 281.58C251.639 281.18 194.547 270.776 177.255 267.335C236.735 245.214 311.526 245.43 312.297 245.435C313.06 245.439 386.447 246.189 445.372 268.476C436.143 270.285 426.827 271.876 417.514 273.314C405.893 275.16 394.231 276.739 382.535 278.064C381.685 278.168 380.831 278.255 379.985 278.355C359.351 280.322 335.96 281.739 312.06 281.58ZM160.718 179.593C162.135 177.93 163.285 176.043 164.172 174.047C164.572 173.151 164.905 172.259 165.193 171.343C165.239 171.368 165.285 171.401 165.33 171.43C166.397 172.064 167.497 172.639 168.626 173.134C170.885 174.139 173.272 174.859 175.705 175.268C180.58 176.193 185.61 175.701 190.318 174.53C194.993 173.301 199.714 171.401 203.622 167.947C205.56 166.247 207.28 164.209 208.56 161.88C209.035 161.005 209.443 160.089 209.797 159.147C210.518 159.605 211.243 160.055 211.993 160.497C214.076 161.734 216.251 162.847 218.539 163.784C220.814 164.743 223.189 165.555 225.718 166.055C228.226 166.58 230.914 166.847 233.689 166.405C236.426 165.993 239.018 165.043 241.247 163.734C243.506 162.455 245.514 160.893 247.347 159.218C250.289 156.455 252.793 153.493 255.051 150.218C256.847 151.297 258.647 152.197 260.539 153.043C263.272 154.247 266.072 155.276 268.939 156.059C274.685 157.622 280.61 158.389 286.572 157.997L288.847 157.789C289.422 157.714 289.985 157.576 290.547 157.447C302.772 155.309 310.064 145.464 312.989 140.572C315.847 145.501 323.01 155.443 335.206 157.743C335.768 157.88 336.326 158.022 336.901 158.101L339.168 158.343C345.131 158.814 351.06 158.126 356.826 156.639C359.706 155.893 362.518 154.905 365.268 153.734C367.172 152.914 368.981 152.039 370.793 150.98C373.006 154.284 375.472 157.28 378.376 160.084C380.189 161.78 382.176 163.368 384.418 164.676C386.626 166.018 389.206 167.001 391.939 167.451C394.71 167.93 397.397 167.697 399.914 167.205C402.451 166.739 404.839 165.955 407.122 165.026C409.422 164.122 411.614 163.039 413.714 161.826C414.464 161.397 415.197 160.955 415.922 160.505C416.264 161.451 416.664 162.376 417.122 163.255C418.372 165.605 420.068 167.664 421.985 169.389C425.843 172.893 430.543 174.855 435.197 176.147C439.889 177.38 444.91 177.939 449.802 177.076C452.243 176.701 454.635 176.009 456.906 175.039C458.043 174.555 459.147 173.997 460.222 173.376C460.272 173.347 460.318 173.318 460.364 173.289C460.639 174.209 460.96 175.105 461.347 176.009C462.21 178.018 463.335 179.918 464.727 181.597C466.139 183.359 467.818 184.872 469.656 186.118C471.185 187.239 472.947 188.268 475.018 189.13C479.664 191.068 483.947 191.734 487.597 191.755C489.235 191.768 490.739 191.647 492.097 191.455C489.514 194.859 487.089 198.364 484.739 201.901C483.064 204.422 481.447 206.976 479.872 209.551C466.356 202.33 402.935 171.209 312.789 170.614C304.564 170.559 296.556 170.768 288.789 171.184C282.118 171.276 275.422 171.28 268.772 171.926C254.072 172.759 239.514 175.209 225.089 178.143C210.697 181.28 196.53 185.455 182.768 190.676C175.855 193.318 169.005 196.189 162.343 199.426C152.839 203.414 146.535 206.626 143.897 208.03C139.472 200.626 135.172 194.168 131.01 188.664C132.864 189.093 135.126 189.43 137.718 189.447C141.368 189.472 145.66 188.864 150.33 186.989C152.41 186.155 154.189 185.151 155.735 184.047C157.585 182.822 159.289 181.334 160.718 179.593ZM42.9137 147.743C51.3137 145.693 53.6304 139.339 53.7596 134.889C58.3471 136.034 69.5346 139.459 74.1721 146.393C72.3387 149.497 67.6262 159.655 77.8012 168.776C85.1262 175.343 95.2804 171.355 100.276 167.939L101.722 168.534L102.005 168.622C108.835 170.059 116.601 176.064 125.043 186.318C125.06 186.334 125.076 186.355 125.093 186.372C130.443 192.88 136.068 201.101 141.893 210.943C141.901 210.955 141.901 210.972 141.91 210.984C141.922 211.009 141.943 211.026 141.955 211.047C144.218 214.868 146.505 218.926 148.822 223.23C148.826 223.243 148.835 223.255 148.843 223.268C148.847 223.276 148.851 223.28 148.855 223.289C148.997 224.064 147.485 226.718 146.576 228.297C144.785 231.426 143.239 234.13 144.247 236.097C145.51 238.568 149.005 238.86 152.38 239.139C154.047 239.28 157.143 239.539 157.48 240.23C165.114 255.985 170.026 268.276 170.076 268.397C170.28 268.905 170.71 269.239 171.201 269.351L171.222 269.368C171.897 269.522 239.606 284.318 312.035 284.797C336.281 284.955 360.01 283.501 380.885 281.497C381.543 281.443 382.201 281.405 382.856 281.351C394.635 280.389 406.401 279.172 418.135 277.676C429.872 276.135 441.535 274.385 453.243 272.205L455.122 270.651C457.322 265.593 459.681 260.518 462.06 255.489L465.706 247.976L467.572 244.247L468.043 243.314L468.139 243.122C468.21 243.085 468.364 243.01 468.618 242.968C469.51 242.739 470.864 242.643 472.235 242.555C473.627 242.455 475.102 242.397 476.814 242.051C477.218 241.993 477.727 241.814 478.177 241.689C478.681 241.489 479.185 241.301 479.739 240.943C480.027 240.747 480.31 240.535 480.577 240.314C480.843 240.072 481.114 239.714 481.352 239.393C481.827 238.93 482.26 237.201 482.131 236.701C482.047 235.151 481.664 234.418 481.356 233.589C481.027 232.814 480.681 232.122 480.335 231.464L478.377 227.793C478.093 227.23 477.827 226.668 477.656 226.201C477.581 226.035 477.539 225.88 477.514 225.755L478.031 224.855L479.068 223.047L481.152 219.447C483.952 214.66 486.864 209.943 489.943 205.359C493.018 200.776 496.206 196.272 499.668 192.043C503.127 187.814 506.797 183.772 510.827 180.314C514.843 176.897 519.306 173.989 523.889 172.955L524.452 172.793L525.168 172.505C525.577 172.764 525.981 173.005 526.41 173.255C527.347 173.784 528.297 174.284 529.297 174.714C531.277 175.589 533.389 176.276 535.647 176.643C537.918 176.972 540.352 176.914 542.714 176.289C545.118 175.73 547.252 174.301 549.022 172.797C550.622 171.284 552.177 169.643 553.322 167.605C554.547 165.643 555.331 163.322 555.631 160.98C555.943 158.63 555.747 156.243 555.16 154.034C554.856 152.934 554.493 151.855 554.022 150.826C553.843 150.426 553.664 150.055 553.472 149.684C554.31 148.63 555.306 147.639 556.427 146.73C558.043 145.426 559.943 144.347 561.893 143.359C563.856 142.376 565.952 141.576 568.073 140.868C569.085 140.53 570.131 140.218 571.177 139.934C571.272 140.709 571.393 141.484 571.622 142.251C572.189 144.322 573.26 146.351 574.777 147.976C576.293 149.593 578.164 150.814 580.093 151.589C581.072 151.959 582.002 152.276 583.047 152.505C584.122 152.659 585.197 152.922 586.277 152.822C590.627 152.772 594.639 150.864 597.531 147.997C600.422 145.151 602.577 141.347 602.864 137.126C603.227 132.918 601.656 128.693 599.114 125.643C596.622 122.564 593.343 120.23 589.714 118.834C586.093 117.439 582.256 116.955 578.531 117.051C576.139 117.155 573.831 117.464 571.527 117.972C571.831 116.851 572.206 115.751 572.322 114.576C572.806 112.051 572.697 109.414 572.252 106.884C571.797 104.347 570.856 101.918 569.568 99.7261C569.356 99.3636 569.122 99.0219 568.893 98.6719C568.889 98.6636 568.885 98.6552 568.881 98.6469C568.718 98.3969 568.552 98.1469 568.381 97.9052C567.181 96.1427 565.877 94.7427 564.718 93.7927L563.147 93.5302C556.785 95.8677 551.756 101.809 548.897 105.897C546.535 95.4719 535.468 90.651 534.931 90.4219L534.31 90.2927C528.318 90.2552 523.427 97.4552 521.143 101.514C514.402 92.6844 499.614 92.9886 498.939 93.0052L497.585 93.8219C492.277 103.23 497.406 120.318 499.293 125.83C491.597 128.247 485.793 137.989 485.535 138.434L485.581 140.139C494.914 154.147 504.139 158.839 509.897 160.368C504.897 162.914 493.635 168.026 483.864 167.964C481.943 167.947 480.389 167.234 479.118 165.78C473.352 159.184 475.614 140.926 475.635 140.743L473.06 139.268C472.935 139.364 460.297 148.976 443.981 148.868C434.014 148.805 430.193 137.951 428.739 130.318C428.935 130.514 429.127 130.722 429.339 130.905C430.893 132.251 432.772 133.193 434.718 133.634C434.743 133.643 434.768 133.655 434.797 133.664C435.964 134.026 437.152 134.201 438.335 134.209C444.593 134.255 450.702 129.534 452.922 122.384C454.189 118.301 454.018 114.03 452.443 110.355C450.847 106.639 448.006 103.98 444.439 102.847C444.414 102.839 444.393 102.826 444.372 102.814C442.497 102.055 440.377 101.755 438.302 101.993C438.193 102.005 438.085 102.034 437.977 102.051C441.902 100.168 445.206 96.4344 446.714 91.576C449.347 83.101 445.539 74.3552 438.227 72.0427C438.206 72.0344 438.189 72.0177 438.164 72.0094C436.289 71.2469 434.168 70.951 432.097 71.1844C430.031 71.4344 428.002 72.1302 426.227 73.2219C422.643 75.3969 420.047 78.9802 418.814 82.9177C417.602 86.8635 417.722 91.2844 419.443 95.1011C419.993 96.3219 420.731 97.4594 421.589 98.4886C421.335 98.3886 421.085 98.2802 420.818 98.1969C420.797 98.1886 420.776 98.1719 420.756 98.1677C418.881 97.4011 416.764 97.1052 414.685 97.3427C412.618 97.5886 410.593 98.2886 408.814 99.3802C405.235 101.555 402.639 105.134 401.406 109.076C400.193 113.018 400.314 117.443 402.035 121.255C402.889 123.159 404.156 124.88 405.722 126.255C407.277 127.601 409.156 128.547 411.106 128.984C411.131 128.993 411.156 129.005 411.181 129.014C412.352 129.376 413.547 129.559 414.752 129.568C416.697 129.584 418.651 129.122 420.518 128.234C416.352 132.868 409.102 138.505 398.535 138.434C381.239 138.318 380.097 117.73 380.056 116.851L377.181 115.947C377.035 116.13 362.843 134.284 344.243 134.164C333.001 134.089 328.097 125.23 325.981 118.405C326.056 118.493 326.147 118.559 326.231 118.643C327.085 119.58 328.022 120.459 329.072 121.226C332.476 123.864 336.851 125.105 341.056 125.239C345.297 125.376 349.422 124.518 353.297 123.201C357.201 121.847 360.81 120.151 364.397 117.88L365.126 114.634L360.772 106.764C362.118 106.459 363.418 106.026 364.656 105.509C367.176 104.443 369.393 102.976 371.481 101.414C373.564 99.8386 375.435 98.0677 377.201 96.2219C378.972 94.3386 380.572 92.4761 382.147 90.2635L382.164 86.9386C380.722 84.776 378.876 83.3135 377.035 82.101C375.181 80.8802 373.247 80.001 371.318 79.2302C369.789 78.6177 368.243 78.1135 366.693 77.6552C368.168 76.1927 369.414 74.6302 370.522 73.0219C371.76 71.2427 372.872 69.4177 373.868 67.5469C374.872 65.6594 375.781 63.8302 376.622 61.7635L375.147 57.7469C373.843 57.0969 372.801 56.6969 371.622 56.2677C370.468 55.8677 369.306 55.5219 368.131 55.2219C365.785 54.6219 363.385 54.2385 360.96 54.0802C358.539 53.9135 356.089 53.951 353.668 54.2677C353.131 54.326 352.593 54.4052 352.056 54.4927C352.851 51.4927 353.456 48.451 353.789 45.3843C354.076 42.9218 354.206 40.4468 354.214 37.9718C354.214 35.4635 354.122 33.0885 353.756 30.4177L351.168 27.9635C348.485 27.7843 345.835 27.9593 343.289 28.451C340.76 28.9802 338.318 29.7343 335.981 30.6802C333.668 31.6385 331.443 32.7552 329.318 34.0177C329.622 32.6802 329.897 31.3385 329.947 29.951C330.226 27.9843 330.039 25.9885 329.943 24.0135C329.618 22.0593 329.343 20.0843 328.647 18.2302C327.431 14.4843 325.514 11.0218 323.147 7.98432C321.072 5.36765 318.772 3.05097 316.097 1.00513C315.326 0.375966 314.843 0.0384674 314.81 0.0176341L313.022 0.000976562C312.806 0.14681 292.885 13.6052 299.326 35.7843C294.239 32.5385 285.393 27.9968 276.401 28.7593L274.951 30.101C274.864 30.6218 273.043 42.2343 277.101 55.9552C263.864 52.6927 253.139 58.1094 252.66 58.3552L251.897 60.3594C252.118 60.9344 256.56 72.4052 263.189 77.6927C257.851 78.926 249.172 81.651 245.681 86.8135L245.668 88.5927C246.089 89.2344 255.447 103.355 267.281 105.372L261.922 114.384L262.372 116.514C262.989 116.951 277.576 127.168 290.772 123.83C294.397 122.914 297.56 121.068 300.218 118.314C299.781 119.639 299.235 121.039 298.56 122.43C294.897 129.993 289.264 133.797 281.818 133.751C263.218 133.626 249.268 115.284 249.131 115.097L246.239 115.968C246.185 116.843 244.776 137.418 227.476 137.305C217.118 137.234 210.031 131.73 205.885 127.101C207.543 127.818 209.264 128.214 210.985 128.222C212.189 128.23 213.389 128.064 214.564 127.718C214.589 127.709 214.614 127.697 214.639 127.689C216.593 127.276 218.489 126.355 220.06 125.03C221.643 123.676 222.931 121.968 223.81 120.08C225.581 116.289 225.76 111.868 224.601 107.905C223.422 103.955 220.872 100.339 217.318 98.1136C215.556 97.0011 213.539 96.2761 211.472 96.0011C209.406 95.7386 207.281 96.0052 205.397 96.7469C205.376 96.7552 205.355 96.7677 205.335 96.7761C205.068 96.8552 204.814 96.9594 204.555 97.0552C205.43 96.0386 206.18 94.9136 206.747 93.6969C208.522 89.9052 208.697 85.4844 207.539 81.5219C206.355 77.5719 203.81 73.951 200.26 71.7302C198.493 70.6177 196.476 69.8927 194.414 69.6177C192.343 69.351 190.218 69.6219 188.335 70.3635C188.314 70.3719 188.293 70.3844 188.272 70.3927C180.93 72.6094 177.01 81.3052 179.526 89.8135C180.972 94.6927 184.226 98.4677 188.126 100.401C188.018 100.384 187.91 100.351 187.801 100.339C185.73 100.076 183.61 100.343 181.722 101.084C181.701 101.093 181.68 101.105 181.655 101.114C178.072 102.197 175.197 104.822 173.551 108.518C171.926 112.168 171.701 116.434 172.914 120.534C175.039 127.718 181.085 132.514 187.343 132.555C188.526 132.564 189.718 132.401 190.889 132.055C190.914 132.047 190.939 132.034 190.968 132.026C192.918 131.609 194.814 130.693 196.385 129.368C196.768 129.043 197.13 128.693 197.476 128.326C195.989 135.955 192.072 147.209 181.897 147.139C165.622 147.034 153.068 137.251 152.947 137.151L150.351 138.597C150.939 143.709 151.405 158.164 146.543 163.584C145.251 165.022 143.689 165.714 141.764 165.705C132.064 165.639 120.943 160.443 115.926 157.814C117.214 157.526 118.472 157.143 119.71 156.705C122.739 155.551 125.526 153.901 128.11 152.03C130.743 150.201 133.001 147.955 135.218 145.701L138.326 142.134L141.185 138.389L141.297 135.693C140.389 134.08 139.464 132.718 138.422 131.305C137.385 129.918 136.276 128.568 134.997 127.322C133.714 126.08 132.36 124.872 130.735 123.872C130.026 123.439 129.268 123.043 128.472 122.693C129.093 120.93 129.676 119.176 130.197 117.372C130.989 114.618 131.655 111.805 132.101 108.922C132.555 106.039 132.835 103.084 132.668 100.018C132.505 96.9677 132.014 93.7511 130.385 90.6469L127.747 89.0094C125.243 88.9469 123.064 89.1344 120.735 89.4594C118.439 89.8136 116.147 90.301 113.885 91.1302C111.63 91.9594 109.414 93.076 107.376 94.6136C106.764 95.0969 106.18 95.6386 105.626 96.2052C105.618 96.1927 105.614 96.1844 105.605 96.1719C104.71 94.7177 103.71 93.3011 102.576 91.9302C101.451 90.5636 100.151 89.2427 98.5263 88.0969C96.9179 86.9719 94.8471 85.9427 92.3554 85.9094L91.1679 86.1385C89.9512 86.676 89.0513 87.1844 88.0554 87.7885C87.0846 88.3719 86.1554 89.0135 85.2554 89.7052C83.4554 91.0844 81.7846 92.6844 80.3262 94.5136C78.9346 96.2344 77.8471 98.2552 77.0596 100.384C76.0721 99.1177 75.0429 97.8802 73.9262 96.7052C72.5096 95.2469 70.9804 93.8719 69.3054 92.6302C67.6012 91.4219 65.7429 90.3719 63.7137 89.6011L61.4721 89.9469C60.3429 90.9469 59.5512 91.8469 58.7346 92.8927C57.9304 93.9136 57.2429 95.0094 56.6096 96.1385C55.3679 98.4011 54.4929 100.889 54.1054 103.451C53.7304 106.001 53.7012 108.63 54.2554 111.114C54.3304 111.722 54.4804 112.305 54.6554 112.88C54.8262 113.618 55.0387 114.364 55.2929 115.122C49.4387 113.726 37.0887 112.23 28.572 121.322C23.4845 126.751 22.6012 133.676 26.2054 139.839C29.8137 146.014 36.6762 149.268 42.9137 147.743Z" fill="#17334A"/>
</g>
<defs>
<clipPath id="clip0_380_1626">
<rect width="637" height="896" fill="white"/>
</clipPath>
</defs>
</svg>
