<svg width="907" height="261" viewBox="0 0 907 261" fill="none" xmlns="http://www.w3.org/2000/svg">
<g clip-path="url(#clip0_380_1199)">
<path d="M18.2276 140.085C14.911 140.06 11.7901 139.631 8.86095 138.789C4.59844 137.56 2.47344 135.806 2.49011 133.531C2.51511 129.927 7.49844 128.152 17.4443 128.218C29.2401 128.298 42.1985 130.535 56.3276 134.927C44.186 138.448 31.4901 140.173 18.2276 140.085ZM90.7235 82.1267C80.3277 82.0558 71.4193 80.1183 63.9818 76.3183C54.511 71.4225 49.811 64.235 49.8735 54.76C49.961 41.5933 58.4151 30.7433 75.2402 22.2016C87.2693 16.0475 101.578 11.8225 118.169 9.50996C125.457 8.72663 130.969 8.18913 134.844 7.88079C152.24 7.30162 167.711 10.0641 184.903 14.4975C177.294 18.9433 169.357 24.9891 161.057 32.8558C152.969 40.5808 139.449 56.0808 120.486 79.3558C106.828 81.2433 96.9068 82.1684 90.7235 82.1267ZM214.015 7.95579C221.474 8.00579 225.186 10.485 225.157 15.4016C225.074 28.0433 213.028 41.2141 189.032 54.9142C169.124 66.2725 151.257 73.3392 135.428 76.11C152.224 52.785 163.253 38.2975 168.519 32.6516C175.457 25.285 182.307 19.6641 189.074 15.5891C195.094 17.2058 201.34 18.9933 207.999 20.9016C208.961 21.1808 209.215 19.5558 209.215 19.5558L209.219 19.2183C203.078 17.16 197.361 15.4516 191.878 13.9225C199.361 9.90996 206.744 7.90579 214.015 7.95579ZM400.061 43.7475C405.536 35.1266 411.128 28.4475 416.836 23.7058C429.336 13.3516 440.657 8.20996 450.79 8.27246C456.978 8.31413 460.057 10.6308 460.024 15.2058C460.015 16.61 459.27 18.5808 457.786 21.1141C451.986 30.8808 441.432 40.2308 426.132 49.1683C413.395 56.6642 400.224 62.3683 386.62 66.2892C391.065 58.7433 395.549 51.2267 400.061 43.7475ZM374.049 86.8642L384.686 69.4308C399.249 65.3225 414.595 58.435 430.728 48.7892C451.532 36.3641 461.97 24.8975 462.04 14.3725C462.074 8.88913 457.632 6.11829 448.703 6.05996C439.461 5.99746 427.436 11.5725 412.632 22.7766C399.878 32.3933 390.061 41.9725 383.178 51.5017L369.761 69.9975C354.503 73.1558 342.953 74.7058 335.107 74.6517C325.415 74.585 316.724 72.7767 309.032 69.21C299.053 64.6142 294.09 58.0683 294.149 49.5767C294.215 39.0433 299.028 29.6891 308.582 21.5183C316.407 14.8641 326.128 9.85579 337.757 6.48496C338.132 6.37246 338.578 6.28496 338.974 6.17662C344.349 4.94329 350.157 4.13912 356.307 3.67246C356.449 3.66412 356.574 3.64745 356.711 3.63912C357.615 3.58495 358.436 3.53912 359.278 3.48912C379.107 2.37245 402.37 4.75579 427.149 9.28913L428.27 9.29329C428.27 9.29329 428.749 7.84329 428.657 7.46413C428.565 7.08496 427.915 6.50579 427.915 6.50579C406.27 2.13079 389.215 0.493287 375.84 0.21412L369.045 0.00161779C356.82 -0.0567156 348.995 0.859951 338.549 3.63495H338.54C335.624 4.25995 334.165 4.73912 333.62 5.10579C329.103 6.53496 324.665 8.24329 320.324 10.285C300.882 19.3975 291.107 32.2141 290.999 48.7267C290.936 58.2892 296.178 65.6308 306.728 70.7308C314.928 74.7392 324.382 76.7808 335.09 76.8517C343.761 76.91 354.836 75.5808 368.307 72.86C353.111 95.5267 341.47 110.718 333.386 118.443C318.111 133.068 301.107 140.327 282.361 140.198C275.411 140.156 269.39 139.256 264.303 137.498C257.049 135.027 253.44 131.085 253.478 125.664C253.486 124.327 253.619 123.114 253.882 122.031C255.078 124.335 256.919 125.493 259.407 125.51C263.486 125.539 265.54 123.481 265.569 119.335C265.582 117.677 264.919 116.256 263.59 115.068C262.257 113.877 260.761 113.277 259.107 113.264C256.236 113.248 253.869 114.606 251.999 117.331C250.328 119.81 249.478 122.543 249.461 125.543C249.428 130.414 251.936 134.318 256.924 137.285C207.824 175.914 124.832 158.739 115.015 156.781C97.9735 153.377 73.0693 138.723 64.3568 135.223C81.811 128.193 94.9943 120.889 103.907 113.293C110.253 107.856 120.149 96.5059 133.59 79.2475C150.249 76.3642 169.011 69.0267 189.878 57.2392C214.961 43.06 227.553 29.31 227.64 15.9808C227.686 9.22663 222.828 5.80996 213.074 5.74746C205.153 5.69329 196.744 8.06413 187.861 12.7891C164.244 6.53496 139.34 5.31829 134.836 5.61412C130.594 5.88912 116.903 7.06829 113.107 8.00996C97.6193 10.7933 84.6735 14.7225 74.3027 19.8141C56.3901 28.6641 47.386 40.4683 47.2901 55.2267C47.2193 65.4017 52.336 73.0975 62.6318 78.3225C70.636 82.3808 80.2485 84.4433 91.4735 84.5225C99.3777 84.5725 108.469 83.6767 118.749 81.835C99.8152 110.081 80.511 127.298 60.8318 133.477C44.0276 128.585 29.6985 126.102 17.8401 126.018C5.98178 125.939 0.0359389 128.393 0.00260556 133.373C-0.0348945 139.427 6.35261 142.489 19.1651 142.577C25.986 142.618 39.8068 140.643 60.6193 136.635C71.4943 140.852 95.5943 155.239 113.461 158.731C215.54 178.893 258.924 138.393 258.924 138.393V138.377C259.878 138.839 260.894 139.277 261.99 139.681C267.907 141.827 274.753 142.927 282.532 142.973C301.086 143.098 318.686 137.793 335.336 127.064C350.832 117.089 363.736 103.693 374.049 86.8642Z" fill="#17334A"/>
<path d="M842.666 134.173C833.245 141.231 825.666 144.74 819.928 144.702C817.187 144.685 815.824 143.531 815.841 141.244C815.866 136.794 820.724 130.469 830.407 122.264C840.087 114.06 847.224 109.973 851.812 110.006C855.512 110.031 857.349 111.664 857.328 114.906C857.295 120.373 852.407 126.794 842.666 134.173ZM751.749 133.64C742.412 140.719 734.853 144.24 729.062 144.198C726.328 144.181 724.97 143.027 724.982 140.727C725.012 136.269 729.857 129.923 739.516 121.698C749.178 113.473 756.295 109.377 760.878 109.406C764.628 109.431 766.499 111.069 766.474 114.319C766.437 119.806 761.528 126.244 751.749 133.64ZM511.211 142.765C508.47 142.744 507.107 141.585 507.12 139.294C507.153 134.831 512.011 128.489 521.691 120.26C531.37 112.039 538.507 107.935 543.099 107.969C546.857 107.994 548.728 109.631 548.707 112.885C548.67 118.369 543.753 124.806 533.945 132.198C524.528 139.281 516.949 142.798 511.211 142.765ZM495.903 178.048C487.382 186.665 479.341 190.948 471.766 190.898C468.778 190.877 467.291 189.369 467.311 186.369C467.353 179.931 473.728 173.473 486.432 166.985C491.22 164.598 500.536 160.831 514.378 155.694C502.77 169.84 496.611 177.29 495.903 178.048ZM467.578 131.698C458.157 138.76 450.578 142.265 444.841 142.231C442.099 142.21 440.736 141.056 440.753 138.769C440.778 134.319 445.636 127.994 455.316 119.789C464.995 111.585 472.132 107.502 476.728 107.527C480.424 107.552 482.261 109.189 482.241 112.431C482.203 117.902 477.316 124.323 467.578 131.698ZM848.799 59.6769C862.224 44.4644 872.574 36.8811 879.841 36.9269C883.028 36.9519 884.612 38.4894 884.595 41.5519C884.549 48.3103 875.912 57.7853 858.678 69.977C854.387 73.0103 842.407 80.552 822.762 92.5978C836.199 75.027 844.878 64.0519 848.799 59.6769ZM904.037 98.9478C901.762 104.473 890.995 117.51 885.999 122.631C884.549 124.123 882.508 125.785 880.445 127.344C879.212 128.169 876.512 130.052 872.378 132.973L872.366 132.981L872.358 132.985C871.182 133.814 869.937 134.702 868.524 135.698C860.291 141.544 854.553 144.39 851.303 144.244L849.778 142.99C849.916 141.527 854.545 135.752 863.666 125.673C869.316 119.589 874.966 113.506 880.616 107.419L869.624 107.352C864.478 113.248 861.112 116.985 859.503 118.569C859.957 117.106 860.191 115.802 860.199 114.648C860.232 109.744 857.028 107.264 850.587 107.223C842.812 107.173 834.407 110.202 825.378 116.31C820.216 119.794 816.445 123.385 813.991 127.081C812.053 128.327 807.895 131.115 801.432 135.494C793.17 141.119 786.649 143.815 781.866 143.594L780.253 142.531C781.028 140.94 781.737 139.798 782.374 139.102C788.482 131.81 794.62 124.544 800.787 117.319C808.241 108.506 814.795 101.627 820.437 96.6936C822.937 94.6061 830.616 89.8436 843.482 82.4061C856.795 74.7145 866.532 68.3395 872.682 63.2769C882.237 55.4394 887.032 48.1978 887.078 41.5644C887.091 39.7186 886.445 38.0728 885.149 36.6269C883.853 35.1853 882.278 34.4561 880.428 34.4436C873.67 34.4019 863.941 39.9478 851.249 51.0894C842.137 59.1894 831.545 70.1811 819.47 84.0645C813.041 91.6728 806.612 99.2853 800.191 106.889C797.232 110.252 793.128 113.702 787.878 117.235C783.516 119.981 779.187 122.731 774.874 125.477L774.724 125.277C773.445 125.398 771.449 125.956 768.737 126.96C766.016 127.964 763.766 128.427 761.982 128.352C766.866 122.639 769.316 117.848 769.345 113.956C769.357 111.664 768.257 109.802 766.032 108.389C764.195 107.227 762.057 106.639 759.637 106.623C751.987 106.573 743.62 109.61 734.52 115.735C729.216 119.356 725.395 123.073 722.949 126.881C709.741 137.89 699.362 143.431 691.878 143.381C690.532 143.373 689.866 142.927 689.87 142.031C689.878 140.819 694.553 135.077 703.895 124.81C709.566 118.66 715.232 112.514 720.903 106.364L707.995 106.281C685.512 131.194 669.749 143.394 660.695 142.89L659.362 142.019C659.499 140.744 664.145 134.969 673.311 124.706C678.907 118.494 684.512 112.31 690.112 106.16L677.482 106.081C675.637 108.235 670.832 112.094 663.074 117.652C655.828 122.71 652.137 125.519 652.007 126.094L652.178 126.31C650.128 127.627 646.27 130.156 640.528 133.956C631.845 139.702 625.216 142.56 620.624 142.531C619.478 142.523 618.907 142.102 618.911 141.277C618.92 140.26 622.161 136.385 628.649 129.656C635.128 122.927 638.391 117.077 638.42 112.119C638.449 107.985 636.707 105.91 633.203 105.885C626.766 105.844 616.782 111.102 603.257 121.66C605.836 117.464 607.141 113.839 607.161 110.781C607.178 107.402 605.599 105.702 602.411 105.681C598.649 105.656 592.861 108.106 585.049 113.027C579.286 116.689 574.003 120.606 569.191 124.781L569.178 124.806C569.074 124.81 569.028 124.756 568.907 124.781C556.345 134.452 545.074 141.552 535.103 146.073L571.232 105.381L560.236 105.306L551.278 114.431C551.953 108.314 548.791 105.231 541.774 105.185C534.124 105.131 525.782 108.206 516.753 114.394C511.757 117.756 508.032 121.202 505.557 124.739C504.128 125.677 500.12 128.481 493.441 133.223C485.207 139.069 479.466 141.915 476.216 141.765L474.695 140.51C474.828 139.048 479.457 133.273 488.578 123.198C494.228 117.114 499.878 111.031 505.532 104.944L494.532 104.873C489.391 110.769 486.02 114.51 484.42 116.089C484.874 114.631 485.107 113.323 485.111 112.177C485.141 107.269 481.941 104.789 475.503 104.748C467.724 104.698 459.32 107.727 450.291 113.835C445.457 117.094 441.824 120.452 439.365 123.894L439.32 123.831C439.128 123.831 434.674 126.794 425.965 132.731C417.64 138.352 411.02 141.148 406.111 141.115C404.965 141.106 404.39 140.719 404.395 139.956C404.403 138.998 407.682 135.115 414.232 128.302C420.782 121.494 424.07 115.598 424.103 110.627C424.128 106.481 422.261 104.398 418.503 104.373C411.486 104.327 401.603 109.398 388.845 119.573L422.595 78.0061L415.999 77.9603C408.036 86.002 400.078 94.0145 392.12 101.998C382.686 111.119 373.97 118.269 365.961 123.439L365.382 124.394L366.62 125.552C371.999 122.398 376.574 119.431 380.349 116.648L312.295 197.877L323.465 197.952L381.486 129.744C384.957 125.752 390.795 121.044 398.999 115.619C407.97 109.689 414.528 106.735 418.674 106.764L420.299 107.252C415.865 112.069 411.436 116.856 407.003 121.606C401.157 128.523 398.22 133.919 398.195 137.806C398.165 142.269 400.128 144.515 404.082 144.54C407.457 144.565 414.17 141.994 424.215 136.835C429.803 133.931 433.857 131.448 436.474 129.348C435.849 131.148 435.528 132.977 435.515 134.827C435.47 141.444 438.832 144.773 445.586 144.819C452.09 144.856 460.086 141.215 469.57 133.881C469.049 135.473 468.786 137.127 468.774 138.848C468.745 142.931 470.641 144.981 474.457 145.006C477.253 145.023 483.349 142.39 492.732 137.094C496.928 134.76 500.17 132.748 502.553 131.019C502.153 132.448 501.899 133.885 501.891 135.335C501.845 142.031 504.911 145.398 511.095 145.44C516.003 145.473 521.778 143.435 528.432 139.323L517.545 152.16C501.061 158.177 490.545 162.319 486.003 164.585C471.678 171.635 464.49 178.89 464.445 186.352C464.411 190.944 466.853 193.256 471.757 193.29C480.303 193.344 490.861 187.835 503.432 176.76C512.607 168.148 521.811 159.569 531.049 151.023C535.207 148.756 538.407 147.215 540.645 146.402C543.395 145.019 548.645 141.831 556.391 136.848C564.716 131.419 569.361 128.006 570.332 126.606L570.349 126.452C586.832 114.248 597.02 108.169 600.861 108.252L601.911 109.123C591.811 122.073 581.878 134.248 572.111 145.652L582.92 145.719C605.849 120.623 622.636 108.11 633.286 108.181L634.907 108.669C630.474 113.485 626.011 118.273 621.52 123.023C615.732 129.935 612.828 135.335 612.803 139.227C612.774 143.685 614.736 145.931 618.686 145.956C622.07 145.981 628.778 143.41 638.824 138.252C648.47 133.302 653.599 129.51 654.341 126.848C658.424 124.519 661.986 122.281 664.961 120.152C656.603 130.235 652.416 136.969 652.391 140.344C652.366 144.494 654.141 146.577 657.72 146.598C663.924 146.64 673.932 141.16 687.749 130.156C685.237 134.415 683.97 137.94 683.949 140.748C683.924 144.506 685.891 146.402 689.841 146.427C698.457 146.485 708.745 141.435 720.695 131.36C720.074 133.144 719.762 134.952 719.749 136.777C719.703 143.469 723.191 146.84 730.203 146.89C737.916 146.935 747.612 141.71 759.287 131.202C765.649 131.244 770.641 130.131 774.362 127.952L774.607 128.24C778.766 125.973 782.224 123.889 784.974 121.998C780.607 127.323 778.262 130.177 777.941 130.56C775.424 134.177 774.162 137.577 774.141 140.769C774.112 144.915 776.107 146.998 780.124 147.023C783.824 147.048 790.566 144.577 800.353 139.602C805.057 137.215 808.641 135.077 811.212 133.156C810.853 134.527 810.616 135.906 810.607 137.302C810.562 143.919 813.92 147.248 820.678 147.29C827.178 147.331 835.174 143.69 844.662 136.356C844.137 137.944 843.87 139.602 843.862 141.323C843.832 145.402 845.728 147.456 849.541 147.481C851.128 147.49 853.812 146.619 857.512 144.923L857.478 144.952L857.737 144.823C860.524 143.531 863.862 141.802 867.82 139.569C867.82 139.569 868.57 139.098 869.695 138.365C884.949 129.189 891.082 121.256 896.291 115.556C905.391 105.602 906.67 98.6811 906.67 98.6811L904.978 98.2978L904.037 98.9478Z" fill="#17334A"/>
<path d="M155.165 129.636C145.744 136.694 138.165 140.206 132.428 140.165C129.69 140.148 128.324 138.994 128.34 136.706C128.369 132.256 133.224 125.931 142.907 117.731C152.586 109.523 159.724 105.435 164.315 105.469C168.011 105.494 169.849 107.127 169.832 110.369C169.794 115.835 164.907 122.256 155.165 129.636ZM184.699 132.498C187.986 130.527 190.474 128.823 192.165 127.381C200.724 120.936 205.215 115.335 209.157 111.019C218.257 101.069 219.536 94.148 219.536 94.148L217.844 93.7646L216.899 94.4146C214.624 99.9397 203.857 112.977 198.869 118.098C197.54 119.465 195.715 120.969 193.84 122.406L193.757 122.302C193.503 122.369 189.261 125.323 181.028 131.161C172.794 137.006 167.053 139.852 163.803 139.706L162.282 138.452C162.419 136.99 167.044 131.215 176.169 121.136C181.815 115.052 187.465 108.969 193.119 102.881L182.124 102.815C176.982 108.71 173.611 112.448 172.007 114.031C172.461 112.569 172.694 111.265 172.699 110.115C172.732 105.206 169.528 102.727 163.09 102.685C155.311 102.635 146.911 105.665 137.878 111.773C135.232 113.56 132.974 115.373 131.04 117.215L131.069 117.156C126.64 121.169 117.149 131.148 91.311 134.636L89.1068 135.311L88.8985 136.552L89.1027 137.565L91.2443 137.519C98.8193 136.773 110.707 133.856 114.161 132.452C118.374 130.736 121.569 128.965 124.044 127.352C123.432 129.136 123.119 130.936 123.107 132.765C123.061 139.381 126.419 142.711 133.178 142.752C139.682 142.794 147.674 139.152 157.161 131.819C156.64 133.411 156.374 135.065 156.361 136.786C156.336 140.865 158.228 142.919 162.044 142.944C163.753 142.952 166.703 141.965 170.861 139.998L170.344 140.419C175.953 137.69 180.653 135.048 184.699 132.498Z" fill="#17334A"/>
<path d="M135.649 226.594H139.99L146.753 242.535C147.419 244.165 148.211 246.498 148.211 246.498H148.299C148.299 246.498 149.09 244.165 149.757 242.535L156.519 226.594H160.865L163.244 256.06H159.153L157.69 237.485C157.565 235.694 157.644 233.14 157.644 233.14H157.565C157.565 233.14 156.686 235.86 155.978 237.485L150.09 250.76H146.415L140.578 237.485C139.907 235.898 138.99 233.06 138.99 233.06H138.903C138.903 233.06 138.944 235.694 138.824 237.485L137.403 256.06H133.269L135.649 226.594Z" fill="#17334A"/>
<path d="M187.769 230.635C187.769 230.635 187.099 233.31 186.599 234.81L183.303 244.16H192.236L188.978 234.81C188.478 233.31 187.853 230.635 187.853 230.635H187.769ZM193.324 247.581H182.215L179.294 256.06H175.036L185.64 226.589H189.982L200.586 256.06H196.282L193.324 247.581Z" fill="#17334A"/>
<path d="M223.353 240.739C226.565 240.739 228.569 238.697 228.569 235.397C228.569 233.222 227.736 231.681 226.232 230.843C225.436 230.426 224.482 230.181 222.182 230.181H217.424V240.739H223.353ZM213.29 226.589H222.311C225.399 226.589 226.69 226.839 227.819 227.256C230.824 228.385 232.79 231.343 232.79 235.231C232.79 238.985 230.699 242.16 227.486 243.201V243.281C227.486 243.281 227.819 243.66 228.361 244.622L234.624 256.06H229.949L223.728 244.326H217.424V256.06H213.29V226.589Z" fill="#17334A"/>
<path d="M261.403 226.085C268.494 226.085 272.128 229.972 272.128 229.972L270.082 233.056C270.082 233.056 266.661 229.839 261.569 229.839C254.974 229.839 250.669 234.852 250.669 241.11C250.669 247.414 255.057 252.756 261.611 252.756C267.161 252.756 270.711 248.918 270.711 248.918L272.919 251.885C272.919 251.885 268.874 256.556 261.486 256.556C252.632 256.556 246.411 249.793 246.411 241.152C246.411 232.593 252.844 226.085 261.403 226.085Z" fill="#17334A"/>
<path d="M286.928 226.594H291.061V239.527H306.34V226.594H310.47V256.06H306.34V243.119H291.061V256.06H286.928V226.594Z" fill="#17334A"/>
<path d="M326.857 226.594H343.97V230.181H330.986V239.402H341.553V242.998H330.986V252.473H344.682V256.06H326.857V226.594Z" fill="#17334A"/>
<path d="M359.228 249.543C359.228 249.543 362.361 252.718 366.74 252.718C369.499 252.718 371.836 251.177 371.836 248.377C371.836 241.993 357.561 243.372 357.561 234.31C357.561 229.714 361.524 226.085 367.074 226.085C372.545 226.085 375.424 229.047 375.424 229.047L373.549 232.472C373.549 232.472 370.832 229.927 367.074 229.927C363.949 229.927 361.732 231.889 361.732 234.222C361.732 240.322 376.007 238.693 376.007 248.247C376.007 252.802 372.507 256.56 366.661 256.56C360.399 256.56 356.89 252.677 356.89 252.677L359.228 249.543Z" fill="#17334A"/>
<path d="M394.436 226.594H390.303V256.06H394.436V226.594Z" fill="#17334A"/>
<path d="M562.599 226.085C569.657 226.085 573.328 229.635 573.328 229.635L571.245 232.722C571.245 232.722 567.945 229.839 562.936 229.839C556.007 229.839 551.832 234.889 551.832 241.197C551.832 248.043 556.507 252.756 562.686 252.756C567.778 252.756 571.028 249.089 571.028 249.089V244.827H566.232V241.239H574.795V256.056H571.161V254.222C571.161 253.597 571.199 252.968 571.199 252.968H571.12C571.12 252.968 567.903 256.556 562.057 256.556C554.128 256.556 547.578 250.302 547.578 241.277C547.578 232.764 554.003 226.085 562.599 226.085Z" fill="#17334A"/>
<path d="M598.691 230.635C598.691 230.635 598.024 233.31 597.524 234.81L594.224 244.16H603.157L599.903 234.81C599.399 233.31 598.778 230.635 598.778 230.635H598.691ZM604.241 247.581H593.141L590.22 256.06H585.957L596.561 226.589H600.903L611.507 256.06H607.207L604.241 247.581Z" fill="#17334A"/>
<path d="M619.207 226.594H623.674L630.978 247.419C631.52 249.006 632.107 251.469 632.107 251.469H632.191C632.191 251.469 632.774 249.006 633.32 247.419L640.703 226.594H645.091L634.232 256.06H630.103L619.207 226.594Z" fill="#17334A"/>
<path d="M670.695 252.761C676.703 252.761 681.545 247.752 681.545 241.115C681.545 234.686 676.703 229.844 670.695 229.844C664.682 229.844 659.799 234.686 659.799 241.115C659.799 247.752 664.682 252.761 670.695 252.761ZM670.695 226.09C679.211 226.09 685.807 232.644 685.807 241.115C685.807 249.798 679.211 256.561 670.695 256.561C662.178 256.561 655.541 249.798 655.541 241.115C655.541 232.644 662.178 226.09 670.695 226.09Z" fill="#17334A"/>
<path d="M706.078 230.181H695.974V226.594H720.312V230.181H710.207V256.06H706.078V230.181Z" fill="#17334A"/>
<path d="M740.282 230.181H730.178V226.594H754.52V230.181H744.416V256.06H740.282V230.181Z" fill="#17334A"/>
<path d="M771.232 226.594H767.099V256.06H771.232V226.594Z" fill="#17334A"/>
<path d="M489.795 239.298C487.42 240.877 485.257 242.644 483.282 244.569C481.12 246.644 479.12 248.852 477.311 251.202C477.295 251.227 477.278 251.252 477.257 251.273C475.182 253.298 473.524 255.065 472.466 256.223C471.428 255.052 469.791 253.269 467.741 251.215C467.724 251.19 467.707 251.165 467.686 251.14C465.911 248.761 463.941 246.531 461.807 244.423C459.857 242.477 457.72 240.681 455.366 239.069L444.857 234.748L444.645 241.106C446.803 241.498 449.207 242.623 451.52 243.923C453.861 245.223 456.174 246.773 458.47 248.402C460.77 250.023 463.066 251.719 465.378 253.452C465.42 253.486 465.461 253.519 465.507 253.552C468.886 256.944 471.157 259.627 471.216 259.698C471.249 259.731 471.291 259.748 471.316 259.777C471.349 259.811 471.366 259.852 471.399 259.877C471.449 259.923 471.511 259.936 471.566 259.973C471.653 260.036 471.745 260.09 471.845 260.131C471.941 260.173 472.036 260.198 472.136 260.219C472.236 260.236 472.336 260.248 472.441 260.248C472.541 260.252 472.641 260.236 472.741 260.219C472.845 260.202 472.936 260.177 473.036 260.14C473.136 260.098 473.224 260.044 473.32 259.986C473.374 259.948 473.432 259.936 473.486 259.894C473.52 259.869 473.536 259.827 473.566 259.794C473.599 259.761 473.641 259.748 473.67 259.711C473.732 259.644 476.032 256.994 479.457 253.648C479.503 253.619 479.549 253.581 479.595 253.548C481.924 251.848 484.245 250.177 486.566 248.586C488.882 246.99 491.216 245.469 493.574 244.206C495.903 242.931 498.324 241.836 500.486 241.469L500.357 235.115L489.795 239.298Z" fill="#17334A"/>
<path d="M455.253 237.06C457.632 235.477 459.795 233.71 461.766 231.785C463.928 229.71 465.928 227.502 467.736 225.152C467.753 225.127 467.77 225.106 467.791 225.081C469.866 223.056 471.524 221.289 472.582 220.131C473.62 221.302 475.257 223.085 477.307 225.139C477.324 225.164 477.345 225.189 477.361 225.214C479.136 227.594 481.107 229.827 483.241 231.931C485.195 233.877 487.328 235.673 489.686 237.285L500.191 241.606L500.403 235.248C498.245 234.86 495.841 233.731 493.528 232.431C491.186 231.131 488.874 229.581 486.578 227.956C484.282 226.331 481.982 224.635 479.674 222.902L479.541 222.802C476.166 219.41 473.891 216.727 473.832 216.66C473.803 216.623 473.757 216.61 473.732 216.577C473.699 216.544 473.686 216.502 473.649 216.477C473.599 216.431 473.541 216.419 473.482 216.381C473.395 216.319 473.303 216.264 473.203 216.223C473.107 216.181 473.016 216.156 472.911 216.139C472.811 216.123 472.711 216.106 472.611 216.106C472.507 216.102 472.407 216.119 472.307 216.139C472.203 216.152 472.111 216.177 472.011 216.214C471.911 216.256 471.824 216.31 471.732 216.369C471.674 216.406 471.616 216.419 471.561 216.464C471.528 216.489 471.511 216.531 471.486 216.56C471.453 216.594 471.407 216.606 471.378 216.644C471.316 216.71 469.016 219.36 465.591 222.706C465.549 222.735 465.499 222.773 465.453 222.806C463.124 224.51 460.803 226.177 458.482 227.773C456.166 229.364 453.832 230.885 451.474 232.152C449.145 233.427 446.724 234.519 444.561 234.885L444.691 241.239L455.253 237.06Z" fill="#17334A"/>
</g>
<defs>
<clipPath id="clip0_380_1199">
<rect width="907" height="261" fill="white"/>
</clipPath>
</defs>
</svg>
